<svg width="2346" height="641" viewBox="0 0 2346 641" fill="none" xmlns="http://www.w3.org/2000/svg">
<g clip-path="url(#clip0_19_79)">
<mask id="path-1-outside-1_19_79" maskUnits="userSpaceOnUse" x="56" y="21" width="2251" height="611" fill="black">
<rect fill="white" x="56" y="21" width="2251" height="611"/>
<path d="M265 214C325 214 379.4 239.6 417.8 281.2L363.4 335.6C341.8 306 307.4 287.6 265 287.6C189.8 287.6 138.6 346.8 138.6 422C138.6 498 189.8 556.4 265 556.4C307.4 556.4 341.8 538 363.4 508.4L417.8 562.8C379.4 604.4 325 630 265 630C150.6 630 57 536.4 57 422C57 307.6 150.6 214 265 214ZM607.35 291.6C548.15 291.6 502.55 324.4 486.55 377.2H725.75C710.55 324.4 667.35 291.6 607.35 291.6ZM481.75 442.8C490.55 506.8 539.35 556.4 607.35 556.4C649.75 556.4 684.15 538 705.75 508.4L760.15 562.8C721.75 604.4 667.35 630 607.35 630C492.95 630 401.75 536.4 401.75 422C401.75 307.6 492.95 214 607.35 214C721.75 214 810.55 307.6 810.55 422C810.55 430 810.55 434.8 809.75 442.8C761.75 442 719.35 442 671.35 442C608.15 442 544.95 442 481.75 442.8ZM850.781 622V22H930.781V622H850.781ZM989.338 62.8H1069.34V222.8H1178.14V290.8H1069.34V422.8C1069.34 498.8 1121.34 549.2 1197.34 549.2V622.8C1082.94 622.8 989.338 538 989.338 422.8V62.8ZM1457.46 214C1557.46 218 1601.46 293.2 1601.46 362V622H1521.46V385.2C1521.46 334 1499.86 280.4 1426.26 274C1359.86 274 1304.66 314 1304.66 403.6V622H1224.66V22H1304.66V267.6C1342.26 228.4 1386.26 214 1443.86 214C1447.86 214 1452.66 214 1457.46 214ZM1841.69 286C1766.49 286 1713.69 346.8 1713.69 422C1713.69 498 1766.49 558 1841.69 558C1917.69 558 1972.89 498 1972.89 422C1972.89 346.8 1917.69 286 1841.69 286ZM1841.69 214C1944.89 214.8 2049.69 275.6 2049.69 422V622H1969.69V570.8C1968.89 571.6 1921.69 630.8 1839.29 630.8H1838.49C1711.29 630.8 1631.29 534 1631.29 421.2C1631.29 321.2 1696.89 214 1840.09 214C1840.89 214 1840.89 214 1841.69 214ZM2305.38 213.2V305.2C2230.18 305.2 2177.38 351.6 2177.38 421.2V621.2H2097.38V421.2C2097.38 290.8 2182.98 213.2 2305.38 213.2Z"/>
</mask>
<path d="M265 214C325 214 379.4 239.6 417.8 281.2L363.4 335.6C341.8 306 307.4 287.6 265 287.6C189.8 287.6 138.6 346.8 138.6 422C138.6 498 189.8 556.4 265 556.4C307.4 556.4 341.8 538 363.4 508.4L417.8 562.8C379.4 604.4 325 630 265 630C150.6 630 57 536.4 57 422C57 307.6 150.6 214 265 214ZM607.35 291.6C548.15 291.6 502.55 324.4 486.55 377.2H725.75C710.55 324.4 667.35 291.6 607.35 291.6ZM481.75 442.8C490.55 506.8 539.35 556.4 607.35 556.4C649.75 556.4 684.15 538 705.75 508.4L760.15 562.8C721.75 604.4 667.35 630 607.35 630C492.95 630 401.75 536.4 401.75 422C401.75 307.6 492.95 214 607.35 214C721.75 214 810.55 307.6 810.55 422C810.55 430 810.55 434.8 809.75 442.8C761.75 442 719.35 442 671.35 442C608.15 442 544.95 442 481.75 442.8ZM850.781 622V22H930.781V622H850.781ZM989.338 62.8H1069.34V222.8H1178.14V290.8H1069.34V422.8C1069.34 498.8 1121.34 549.2 1197.34 549.2V622.8C1082.94 622.8 989.338 538 989.338 422.8V62.8ZM1457.46 214C1557.46 218 1601.46 293.2 1601.46 362V622H1521.46V385.2C1521.46 334 1499.86 280.4 1426.26 274C1359.86 274 1304.66 314 1304.66 403.6V622H1224.66V22H1304.66V267.6C1342.26 228.4 1386.26 214 1443.86 214C1447.86 214 1452.66 214 1457.46 214ZM1841.69 286C1766.49 286 1713.69 346.8 1713.69 422C1713.69 498 1766.49 558 1841.69 558C1917.69 558 1972.89 498 1972.89 422C1972.89 346.8 1917.69 286 1841.69 286ZM1841.69 214C1944.89 214.8 2049.69 275.6 2049.69 422V622H1969.69V570.8C1968.89 571.6 1921.69 630.8 1839.29 630.8H1838.49C1711.29 630.8 1631.29 534 1631.29 421.2C1631.29 321.2 1696.89 214 1840.09 214C1840.89 214 1840.89 214 1841.69 214ZM2305.38 213.2V305.2C2230.18 305.2 2177.38 351.6 2177.38 421.2V621.2H2097.38V421.2C2097.38 290.8 2182.98 213.2 2305.38 213.2Z" fill="white"/>
<path d="M417.8 281.2L418.507 281.907L419.187 281.228L418.535 280.522L417.8 281.2ZM363.4 335.6L362.592 336.189L363.281 337.133L364.107 336.307L363.4 335.6ZM363.4 508.4L364.107 507.693L363.281 506.867L362.592 507.811L363.4 508.4ZM417.8 562.8L418.535 563.478L419.187 562.772L418.507 562.093L417.8 562.8ZM265 215C324.709 215 378.846 240.474 417.065 281.878L418.535 280.522C379.954 238.726 325.291 213 265 213V215ZM417.093 280.493L362.693 334.893L364.107 336.307L418.507 281.907L417.093 280.493ZM364.208 335.011C342.414 305.145 307.71 286.6 265 286.6V288.6C307.091 288.6 341.186 306.855 362.592 336.189L364.208 335.011ZM265 286.6C189.168 286.6 137.6 346.331 137.6 422H139.6C139.6 347.269 190.432 288.6 265 288.6V286.6ZM137.6 422C137.6 498.473 189.172 557.4 265 557.4V555.4C190.428 555.4 139.6 497.527 139.6 422H137.6ZM265 557.4C307.71 557.4 342.414 538.855 364.208 508.989L362.592 507.811C341.186 537.145 307.091 555.4 265 555.4V557.4ZM362.693 509.107L417.093 563.507L418.507 562.093L364.107 507.693L362.693 509.107ZM417.065 562.122C378.846 603.526 324.709 629 265 629V631C325.291 631 379.954 605.274 418.535 563.478L417.065 562.122ZM265 629C151.152 629 58 535.848 58 422H56C56 536.952 150.048 631 265 631V629ZM58 422C58 308.152 151.152 215 265 215V213C150.048 213 56 307.048 56 422H58ZM486.55 377.2L485.593 376.91L485.202 378.2H486.55V377.2ZM725.75 377.2V378.2H727.079L726.711 376.923L725.75 377.2ZM481.75 442.8L481.737 441.8L480.605 441.814L480.759 442.936L481.75 442.8ZM705.75 508.4L706.457 507.693L705.631 506.867L704.942 507.811L705.75 508.4ZM760.15 562.8L760.885 563.478L761.537 562.772L760.857 562.093L760.15 562.8ZM809.75 442.8L809.733 443.8L810.653 443.815L810.745 442.899L809.75 442.8ZM607.35 290.6C547.743 290.6 501.73 323.657 485.593 376.91L487.507 377.49C503.37 325.143 548.557 292.6 607.35 292.6V290.6ZM486.55 378.2H725.75V376.2H486.55V378.2ZM726.711 376.923C711.382 323.674 667.774 290.6 607.35 290.6V292.6C666.926 292.6 709.718 325.126 724.789 377.477L726.711 376.923ZM480.759 442.936C489.619 507.368 538.789 557.4 607.35 557.4V555.4C539.911 555.4 491.481 506.232 482.741 442.664L480.759 442.936ZM607.35 557.4C650.06 557.4 684.764 538.855 706.558 508.989L704.942 507.811C683.536 537.145 649.44 555.4 607.35 555.4V557.4ZM705.043 509.107L759.443 563.507L760.857 562.093L706.457 507.693L705.043 509.107ZM759.415 562.122C721.196 603.526 667.059 629 607.35 629V631C667.641 631 722.304 605.274 760.885 563.478L759.415 562.122ZM607.35 629C493.517 629 402.75 535.863 402.75 422H400.75C400.75 536.937 492.383 631 607.35 631V629ZM402.75 422C402.75 308.137 493.517 215 607.35 215V213C492.383 213 400.75 307.063 400.75 422H402.75ZM607.35 215C721.167 215 809.55 308.122 809.55 422H811.55C811.55 307.078 722.333 213 607.35 213V215ZM809.55 422C809.55 429.996 809.55 434.754 808.755 442.7L810.745 442.899C811.55 434.846 811.55 430.004 811.55 422H809.55ZM809.767 441.8C761.757 441 719.349 441 671.35 441V443C719.351 443 761.743 443 809.733 443.8L809.767 441.8ZM671.35 441C608.151 441 544.945 441 481.737 441.8L481.763 443.8C544.955 443 608.149 443 671.35 443V441ZM850.781 622H849.781V623H850.781V622ZM850.781 22V21H849.781V22H850.781ZM930.781 22H931.781V21H930.781V22ZM930.781 622V623H931.781V622H930.781ZM851.781 622V22H849.781V622H851.781ZM850.781 23H930.781V21H850.781V23ZM929.781 22V622H931.781V22H929.781ZM930.781 621H850.781V623H930.781V621ZM989.338 62.8V61.8H988.338V62.8H989.338ZM1069.34 62.8H1070.34V61.8H1069.34V62.8ZM1069.34 222.8H1068.34V223.8H1069.34V222.8ZM1178.14 222.8H1179.14V221.8H1178.14V222.8ZM1178.14 290.8V291.8H1179.14V290.8H1178.14ZM1069.34 290.8V289.8H1068.34V290.8H1069.34ZM1197.34 549.2H1198.34V548.2H1197.34V549.2ZM1197.34 622.8V623.8H1198.34V622.8H1197.34ZM989.338 63.8H1069.34V61.8H989.338V63.8ZM1068.34 62.8V222.8H1070.34V62.8H1068.34ZM1069.34 223.8H1178.14V221.8H1069.34V223.8ZM1177.14 222.8V290.8H1179.14V222.8H1177.14ZM1178.14 289.8H1069.34V291.8H1178.14V289.8ZM1068.34 290.8V422.8H1070.34V290.8H1068.34ZM1068.34 422.8C1068.34 461.035 1081.42 492.903 1104.14 515.213C1126.85 537.522 1159.11 550.2 1197.34 550.2V548.2C1159.56 548.2 1127.83 535.678 1105.54 513.787C1083.25 491.897 1070.34 460.565 1070.34 422.8H1068.34ZM1196.34 549.2V622.8H1198.34V549.2H1196.34ZM1197.34 621.8C1083.44 621.8 990.338 537.394 990.338 422.8H988.338C988.338 538.606 1082.44 623.8 1197.34 623.8V621.8ZM990.338 422.8V62.8H988.338V422.8H990.338ZM1457.46 214L1457.5 213.001L1457.48 213H1457.46V214ZM1601.46 622V623H1602.46V622H1601.46ZM1521.46 622H1520.46V623H1521.46V622ZM1426.26 274L1426.34 273.004L1426.3 273H1426.26V274ZM1304.66 622V623H1305.66V622H1304.66ZM1224.66 622H1223.66V623H1224.66V622ZM1224.66 22V21H1223.66V22H1224.66ZM1304.66 22H1305.66V21H1304.66V22ZM1304.66 267.6H1303.66V270.087L1305.38 268.292L1304.66 267.6ZM1457.42 214.999C1507.15 216.989 1542.88 236.67 1566.19 264.344C1589.52 292.039 1600.46 327.802 1600.46 362H1602.46C1602.46 327.398 1591.39 291.161 1567.72 263.056C1544.03 234.93 1507.76 215.011 1457.5 213.001L1457.42 214.999ZM1600.46 362V622H1602.46V362H1600.46ZM1601.46 621H1521.46V623H1601.46V621ZM1522.46 622V385.2H1520.46V622H1522.46ZM1522.46 385.2C1522.46 359.478 1517.03 333.049 1502.27 312.222C1487.48 291.356 1463.4 276.226 1426.34 273.004L1426.17 274.996C1462.71 278.174 1486.23 293.044 1500.64 313.378C1515.08 333.751 1520.46 359.722 1520.46 385.2H1522.46ZM1426.26 273C1392.86 273 1362.19 283.061 1339.86 304.478C1317.53 325.905 1303.66 358.588 1303.66 403.6H1305.66C1305.66 359.012 1319.38 326.895 1341.25 305.922C1363.12 284.939 1393.25 275 1426.26 275V273ZM1303.66 403.6V622H1305.66V403.6H1303.66ZM1304.66 621H1224.66V623H1304.66V621ZM1225.66 622V22H1223.66V622H1225.66ZM1224.66 23H1304.66V21H1224.66V23ZM1303.66 22V267.6H1305.66V22H1303.66ZM1305.38 268.292C1342.74 229.336 1386.46 215 1443.86 215V213C1386.06 213 1341.77 227.464 1303.93 266.908L1305.38 268.292ZM1443.86 215C1443.86 215 1443.87 215 1443.88 215C1443.89 215 1443.9 215 1443.9 215C1443.91 215 1443.92 215 1443.93 215C1443.93 215 1443.94 215 1443.95 215C1443.96 215 1443.97 215 1443.97 215C1443.98 215 1443.99 215 1444 215C1444.01 215 1444.01 215 1444.02 215C1444.03 215 1444.04 215 1444.04 215C1444.05 215 1444.06 215 1444.07 215C1444.08 215 1444.08 215 1444.09 215C1444.1 215 1444.11 215 1444.12 215C1444.12 215 1444.13 215 1444.14 215C1444.15 215 1444.15 215 1444.16 215C1444.17 215 1444.18 215 1444.19 215C1444.19 215 1444.2 215 1444.21 215C1444.22 215 1444.23 215 1444.23 215C1444.24 215 1444.25 215 1444.26 215C1444.27 215 1444.27 215 1444.28 215C1444.29 215 1444.3 215 1444.3 215C1444.31 215 1444.32 215 1444.33 215C1444.34 215 1444.34 215 1444.35 215C1444.36 215 1444.37 215 1444.38 215C1444.38 215 1444.39 215 1444.4 215C1444.41 215 1444.42 215 1444.42 215C1444.43 215 1444.44 215 1444.45 215C1444.46 215 1444.46 215 1444.47 215C1444.48 215 1444.49 215 1444.5 215C1444.5 215 1444.51 215 1444.52 215C1444.53 215 1444.54 215 1444.54 215C1444.55 215 1444.56 215 1444.57 215C1444.58 215 1444.58 215 1444.59 215C1444.6 215 1444.61 215 1444.62 215C1444.62 215 1444.63 215 1444.64 215C1444.65 215 1444.66 215 1444.66 215C1444.67 215 1444.68 215 1444.69 215C1444.7 215 1444.7 215 1444.71 215C1444.72 215 1444.73 215 1444.74 215C1444.74 215 1444.75 215 1444.76 215C1444.77 215 1444.78 215 1444.78 215C1444.79 215 1444.8 215 1444.81 215C1444.82 215 1444.82 215 1444.83 215C1444.84 215 1444.85 215 1444.86 215C1444.86 215 1444.87 215 1444.88 215C1444.89 215 1444.9 215 1444.9 215C1444.91 215 1444.92 215 1444.93 215C1444.94 215 1444.95 215 1444.95 215C1444.96 215 1444.97 215 1444.98 215C1444.99 215 1444.99 215 1445 215C1445.01 215 1445.02 215 1445.03 215C1445.03 215 1445.04 215 1445.05 215C1445.06 215 1445.07 215 1445.07 215C1445.08 215 1445.09 215 1445.1 215C1445.11 215 1445.12 215 1445.12 215C1445.13 215 1445.14 215 1445.15 215C1445.16 215 1445.16 215 1445.17 215C1445.18 215 1445.19 215 1445.2 215C1445.2 215 1445.21 215 1445.22 215C1445.23 215 1445.24 215 1445.25 215C1445.25 215 1445.26 215 1445.27 215C1445.28 215 1445.29 215 1445.29 215C1445.3 215 1445.31 215 1445.32 215C1445.33 215 1445.33 215 1445.34 215C1445.35 215 1445.36 215 1445.37 215C1445.38 215 1445.38 215 1445.39 215C1445.4 215 1445.41 215 1445.42 215C1445.42 215 1445.43 215 1445.44 215C1445.45 215 1445.46 215 1445.47 215C1445.47 215 1445.48 215 1445.49 215C1445.5 215 1445.51 215 1445.52 215C1445.52 215 1445.53 215 1445.54 215C1445.55 215 1445.56 215 1445.56 215C1445.57 215 1445.58 215 1445.59 215C1445.6 215 1445.61 215 1445.61 215C1445.62 215 1445.63 215 1445.64 215C1445.65 215 1445.65 215 1445.66 215C1445.67 215 1445.68 215 1445.69 215C1445.7 215 1445.7 215 1445.71 215C1445.72 215 1445.73 215 1445.74 215C1445.75 215 1445.75 215 1445.76 215C1445.77 215 1445.78 215 1445.79 215C1445.8 215 1445.8 215 1445.81 215C1445.82 215 1445.83 215 1445.84 215C1445.84 215 1445.85 215 1445.86 215C1445.87 215 1445.88 215 1445.89 215C1445.89 215 1445.9 215 1445.91 215C1445.92 215 1445.93 215 1445.94 215C1445.94 215 1445.95 215 1445.96 215C1445.97 215 1445.98 215 1445.99 215C1445.99 215 1446 215 1446.01 215C1446.02 215 1446.03 215 1446.04 215C1446.04 215 1446.05 215 1446.06 215C1446.07 215 1446.08 215 1446.09 215C1446.09 215 1446.1 215 1446.11 215C1446.12 215 1446.13 215 1446.14 215C1446.14 215 1446.15 215 1446.16 215C1446.17 215 1446.18 215 1446.19 215C1446.19 215 1446.2 215 1446.21 215C1446.22 215 1446.23 215 1446.24 215C1446.24 215 1446.25 215 1446.26 215C1446.27 215 1446.28 215 1446.29 215C1446.29 215 1446.3 215 1446.31 215C1446.32 215 1446.33 215 1446.34 215C1446.34 215 1446.35 215 1446.36 215C1446.37 215 1446.38 215 1446.39 215C1446.39 215 1446.4 215 1446.41 215C1446.42 215 1446.43 215 1446.44 215C1446.44 215 1446.45 215 1446.46 215C1446.47 215 1446.48 215 1446.49 215C1446.5 215 1446.5 215 1446.51 215C1446.52 215 1446.53 215 1446.54 215C1446.55 215 1446.55 215 1446.56 215C1446.57 215 1446.58 215 1446.59 215C1446.6 215 1446.6 215 1446.61 215C1446.62 215 1446.63 215 1446.64 215C1446.65 215 1446.66 215 1446.66 215C1446.67 215 1446.68 215 1446.69 215C1446.7 215 1446.71 215 1446.71 215C1446.72 215 1446.73 215 1446.74 215C1446.75 215 1446.76 215 1446.76 215C1446.77 215 1446.78 215 1446.79 215C1446.8 215 1446.81 215 1446.82 215C1446.82 215 1446.83 215 1446.84 215C1446.85 215 1446.86 215 1446.87 215C1446.87 215 1446.88 215 1446.89 215C1446.9 215 1446.91 215 1446.92 215C1446.93 215 1446.93 215 1446.94 215C1446.95 215 1446.96 215 1446.97 215C1446.98 215 1446.99 215 1446.99 215C1447 215 1447.01 215 1447.02 215C1447.03 215 1447.04 215 1447.04 215C1447.05 215 1447.06 215 1447.07 215C1447.08 215 1447.09 215 1447.1 215C1447.1 215 1447.11 215 1447.12 215C1447.13 215 1447.14 215 1447.15 215C1447.16 215 1447.16 215 1447.17 215C1447.18 215 1447.19 215 1447.2 215C1447.21 215 1447.22 215 1447.22 215C1447.23 215 1447.24 215 1447.25 215C1447.26 215 1447.27 215 1447.27 215C1447.28 215 1447.29 215 1447.3 215C1447.31 215 1447.32 215 1447.33 215C1447.33 215 1447.34 215 1447.35 215C1447.36 215 1447.37 215 1447.38 215C1447.39 215 1447.39 215 1447.4 215C1447.41 215 1447.42 215 1447.43 215C1447.44 215 1447.45 215 1447.45 215C1447.46 215 1447.47 215 1447.48 215C1447.49 215 1447.5 215 1447.51 215C1447.51 215 1447.52 215 1447.53 215C1447.54 215 1447.55 215 1447.56 215C1447.57 215 1447.57 215 1447.58 215C1447.59 215 1447.6 215 1447.61 215C1447.62 215 1447.63 215 1447.64 215C1447.64 215 1447.65 215 1447.66 215C1447.67 215 1447.68 215 1447.69 215C1447.7 215 1447.7 215 1447.71 215C1447.72 215 1447.73 215 1447.74 215C1447.75 215 1447.76 215 1447.76 215C1447.77 215 1447.78 215 1447.79 215C1447.8 215 1447.81 215 1447.82 215C1447.82 215 1447.83 215 1447.84 215C1447.85 215 1447.86 215 1447.87 215C1447.88 215 1447.89 215 1447.89 215C1447.9 215 1447.91 215 1447.92 215C1447.93 215 1447.94 215 1447.95 215C1447.95 215 1447.96 215 1447.97 215C1447.98 215 1447.99 215 1448 215C1448.01 215 1448.02 215 1448.02 215C1448.03 215 1448.04 215 1448.05 215C1448.06 215 1448.07 215 1448.08 215C1448.08 215 1448.09 215 1448.1 215C1448.11 215 1448.12 215 1448.13 215C1448.14 215 1448.15 215 1448.15 215C1448.16 215 1448.17 215 1448.18 215C1448.19 215 1448.2 215 1448.21 215C1448.21 215 1448.22 215 1448.23 215C1448.24 215 1448.25 215 1448.26 215C1448.27 215 1448.28 215 1448.28 215C1448.29 215 1448.3 215 1448.31 215C1448.32 215 1448.33 215 1448.34 215C1448.35 215 1448.35 215 1448.36 215C1448.37 215 1448.38 215 1448.39 215C1448.4 215 1448.41 215 1448.42 215C1448.42 215 1448.43 215 1448.44 215C1448.45 215 1448.46 215 1448.47 215C1448.48 215 1448.49 215 1448.49 215C1448.5 215 1448.51 215 1448.52 215C1448.53 215 1448.54 215 1448.55 215C1448.56 215 1448.56 215 1448.57 215C1448.58 215 1448.59 215 1448.6 215C1448.61 215 1448.62 215 1448.63 215C1448.63 215 1448.64 215 1448.65 215C1448.66 215 1448.67 215 1448.68 215C1448.69 215 1448.7 215 1448.7 215C1448.71 215 1448.72 215 1448.73 215C1448.74 215 1448.75 215 1448.76 215C1448.77 215 1448.77 215 1448.78 215C1448.79 215 1448.8 215 1448.81 215C1448.82 215 1448.83 215 1448.84 215C1448.84 215 1448.85 215 1448.86 215C1448.87 215 1448.88 215 1448.89 215C1448.9 215 1448.91 215 1448.92 215C1448.92 215 1448.93 215 1448.94 215C1448.95 215 1448.96 215 1448.97 215C1448.98 215 1448.99 215 1448.99 215C1449 215 1449.01 215 1449.02 215C1449.03 215 1449.04 215 1449.05 215C1449.06 215 1449.06 215 1449.07 215C1449.08 215 1449.09 215 1449.1 215C1449.11 215 1449.12 215 1449.13 215C1449.14 215 1449.14 215 1449.15 215C1449.16 215 1449.17 215 1449.18 215C1449.19 215 1449.2 215 1449.21 215C1449.22 215 1449.22 215 1449.23 215C1449.24 215 1449.25 215 1449.26 215C1449.27 215 1449.28 215 1449.29 215C1449.29 215 1449.3 215 1449.31 215C1449.32 215 1449.33 215 1449.34 215C1449.35 215 1449.36 215 1449.37 215C1449.37 215 1449.38 215 1449.39 215C1449.4 215 1449.41 215 1449.42 215C1449.43 215 1449.44 215 1449.45 215C1449.45 215 1449.46 215 1449.47 215C1449.48 215 1449.49 215 1449.5 215C1449.51 215 1449.52 215 1449.53 215C1449.53 215 1449.54 215 1449.55 215C1449.56 215 1449.57 215 1449.58 215C1449.59 215 1449.6 215 1449.61 215C1449.61 215 1449.62 215 1449.63 215C1449.64 215 1449.65 215 1449.66 215C1449.67 215 1449.68 215 1449.69 215C1449.69 215 1449.7 215 1449.71 215C1449.72 215 1449.73 215 1449.74 215C1449.75 215 1449.76 215 1449.77 215C1449.77 215 1449.78 215 1449.79 215C1449.8 215 1449.81 215 1449.82 215C1449.83 215 1449.84 215 1449.85 215C1449.85 215 1449.86 215 1449.87 215C1449.88 215 1449.89 215 1449.9 215C1449.91 215 1449.92 215 1449.93 215C1449.94 215 1449.94 215 1449.95 215C1449.96 215 1449.97 215 1449.98 215C1449.99 215 1450 215 1450.01 215C1450.02 215 1450.02 215 1450.03 215C1450.04 215 1450.05 215 1450.06 215C1450.07 215 1450.08 215 1450.09 215C1450.1 215 1450.11 215 1450.11 215C1450.12 215 1450.13 215 1450.14 215C1450.15 215 1450.16 215 1450.17 215C1450.18 215 1450.19 215 1450.19 215C1450.2 215 1450.21 215 1450.22 215C1450.23 215 1450.24 215 1450.25 215C1450.26 215 1450.27 215 1450.28 215C1450.28 215 1450.29 215 1450.3 215C1450.31 215 1450.32 215 1450.33 215C1450.34 215 1450.35 215 1450.36 215C1450.37 215 1450.37 215 1450.38 215C1450.39 215 1450.4 215 1450.41 215C1450.42 215 1450.43 215 1450.44 215C1450.45 215 1450.46 215 1450.46 215C1450.47 215 1450.48 215 1450.49 215C1450.5 215 1450.51 215 1450.52 215C1450.53 215 1450.54 215 1450.55 215C1450.55 215 1450.56 215 1450.57 215C1450.58 215 1450.59 215 1450.6 215C1450.61 215 1450.62 215 1450.63 215C1450.64 215 1450.64 215 1450.65 215C1450.66 215 1450.67 215 1450.68 215C1450.69 215 1450.7 215 1450.71 215C1450.72 215 1450.73 215 1450.73 215C1450.74 215 1450.75 215 1450.76 215C1450.77 215 1450.78 215 1450.79 215C1450.8 215 1450.81 215 1450.82 215C1450.82 215 1450.83 215 1450.84 215C1450.85 215 1450.86 215 1450.87 215C1450.88 215 1450.89 215 1450.9 215C1450.91 215 1450.92 215 1450.92 215C1450.93 215 1450.94 215 1450.95 215C1450.96 215 1450.97 215 1450.98 215C1450.99 215 1451 215 1451.01 215C1451.01 215 1451.02 215 1451.03 215C1451.04 215 1451.05 215 1451.06 215C1451.07 215 1451.08 215 1451.09 215C1451.1 215 1451.11 215 1451.11 215C1451.12 215 1451.13 215 1451.14 215C1451.15 215 1451.16 215 1451.17 215C1451.18 215 1451.19 215 1451.2 215C1451.21 215 1451.21 215 1451.22 215C1451.23 215 1451.24 215 1451.25 215C1451.26 215 1451.27 215 1451.28 215C1451.29 215 1451.3 215 1451.3 215C1451.31 215 1451.32 215 1451.33 215C1451.34 215 1451.35 215 1451.36 215C1451.37 215 1451.38 215 1451.39 215C1451.4 215 1451.4 215 1451.41 215C1451.42 215 1451.43 215 1451.44 215C1451.45 215 1451.46 215 1451.47 215C1451.48 215 1451.49 215 1451.5 215C1451.51 215 1451.51 215 1451.52 215C1451.53 215 1451.54 215 1451.55 215C1451.56 215 1451.57 215 1451.58 215C1451.59 215 1451.6 215 1451.61 215C1451.61 215 1451.62 215 1451.63 215C1451.64 215 1451.65 215 1451.66 215C1451.67 215 1451.68 215 1451.69 215C1451.7 215 1451.71 215 1451.71 215C1451.72 215 1451.73 215 1451.74 215C1451.75 215 1451.76 215 1451.77 215C1451.78 215 1451.79 215 1451.8 215C1451.81 215 1451.82 215 1451.82 215C1451.83 215 1451.84 215 1451.85 215C1451.86 215 1451.87 215 1451.88 215C1451.89 215 1451.9 215 1451.91 215C1451.92 215 1451.92 215 1451.93 215C1451.94 215 1451.95 215 1451.96 215C1451.97 215 1451.98 215 1451.99 215C1452 215 1452.01 215 1452.02 215C1452.03 215 1452.03 215 1452.04 215C1452.05 215 1452.06 215 1452.07 215C1452.08 215 1452.09 215 1452.1 215C1452.11 215 1452.12 215 1452.13 215C1452.14 215 1452.14 215 1452.15 215C1452.16 215 1452.17 215 1452.18 215C1452.19 215 1452.2 215 1452.21 215C1452.22 215 1452.23 215 1452.24 215C1452.25 215 1452.25 215 1452.26 215C1452.27 215 1452.28 215 1452.29 215C1452.3 215 1452.31 215 1452.32 215C1452.33 215 1452.34 215 1452.35 215C1452.36 215 1452.36 215 1452.37 215C1452.38 215 1452.39 215 1452.4 215C1452.41 215 1452.42 215 1452.43 215C1452.44 215 1452.45 215 1452.46 215C1452.47 215 1452.47 215 1452.48 215C1452.49 215 1452.5 215 1452.51 215C1452.52 215 1452.53 215 1452.54 215C1452.55 215 1452.56 215 1452.57 215C1452.58 215 1452.58 215 1452.59 215C1452.6 215 1452.61 215 1452.62 215C1452.63 215 1452.64 215 1452.65 215C1452.66 215 1452.67 215 1452.68 215C1452.69 215 1452.7 215 1452.7 215C1452.71 215 1452.72 215 1452.73 215C1452.74 215 1452.75 215 1452.76 215C1452.77 215 1452.78 215 1452.79 215C1452.8 215 1452.81 215 1452.81 215C1452.82 215 1452.83 215 1452.84 215C1452.85 215 1452.86 215 1452.87 215C1452.88 215 1452.89 215 1452.9 215C1452.91 215 1452.92 215 1452.93 215C1452.93 215 1452.94 215 1452.95 215C1452.96 215 1452.97 215 1452.98 215C1452.99 215 1453 215 1453.01 215C1453.02 215 1453.03 215 1453.04 215C1453.05 215 1453.05 215 1453.06 215C1453.07 215 1453.08 215 1453.09 215C1453.1 215 1453.11 215 1453.12 215C1453.13 215 1453.14 215 1453.15 215C1453.16 215 1453.17 215 1453.17 215C1453.18 215 1453.19 215 1453.2 215C1453.21 215 1453.22 215 1453.23 215C1453.24 215 1453.25 215 1453.26 215C1453.27 215 1453.28 215 1453.29 215C1453.29 215 1453.3 215 1453.31 215C1453.32 215 1453.33 215 1453.34 215C1453.35 215 1453.36 215 1453.37 215C1453.38 215 1453.39 215 1453.4 215C1453.41 215 1453.41 215 1453.42 215C1453.43 215 1453.44 215 1453.45 215C1453.46 215 1453.47 215 1453.48 215C1453.49 215 1453.5 215 1453.51 215C1453.52 215 1453.53 215 1453.54 215C1453.54 215 1453.55 215 1453.56 215C1453.57 215 1453.58 215 1453.59 215C1453.6 215 1453.61 215 1453.62 215C1453.63 215 1453.64 215 1453.65 215C1453.66 215 1453.66 215 1453.67 215C1453.68 215 1453.69 215 1453.7 215C1453.71 215 1453.72 215 1453.73 215C1453.74 215 1453.75 215 1453.76 215C1453.77 215 1453.78 215 1453.79 215C1453.79 215 1453.8 215 1453.81 215C1453.82 215 1453.83 215 1453.84 215C1453.85 215 1453.86 215 1453.87 215C1453.88 215 1453.89 215 1453.9 215C1453.91 215 1453.92 215 1453.92 215C1453.93 215 1453.94 215 1453.95 215C1453.96 215 1453.97 215 1453.98 215C1453.99 215 1454 215 1454.01 215C1454.02 215 1454.03 215 1454.04 215C1454.05 215 1454.05 215 1454.06 215C1454.07 215 1454.08 215 1454.09 215C1454.1 215 1454.11 215 1454.12 215C1454.13 215 1454.14 215 1454.15 215C1454.16 215 1454.17 215 1454.18 215C1454.18 215 1454.19 215 1454.2 215C1454.21 215 1454.22 215 1454.23 215C1454.24 215 1454.25 215 1454.26 215C1454.27 215 1454.28 215 1454.29 215C1454.3 215 1454.31 215 1454.31 215C1454.32 215 1454.33 215 1454.34 215C1454.35 215 1454.36 215 1454.37 215C1454.38 215 1454.39 215 1454.4 215C1454.41 215 1454.42 215 1454.43 215C1454.44 215 1454.44 215 1454.45 215C1454.46 215 1454.47 215 1454.48 215C1454.49 215 1454.5 215 1454.51 215C1454.52 215 1454.53 215 1454.54 215C1454.55 215 1454.56 215 1454.57 215C1454.58 215 1454.58 215 1454.59 215C1454.6 215 1454.61 215 1454.62 215C1454.63 215 1454.64 215 1454.65 215C1454.66 215 1454.67 215 1454.68 215C1454.69 215 1454.7 215 1454.71 215C1454.71 215 1454.72 215 1454.73 215C1454.74 215 1454.75 215 1454.76 215C1454.77 215 1454.78 215 1454.79 215C1454.8 215 1454.81 215 1454.82 215C1454.83 215 1454.84 215 1454.85 215C1454.85 215 1454.86 215 1454.87 215C1454.88 215 1454.89 215 1454.9 215C1454.91 215 1454.92 215 1454.93 215C1454.94 215 1454.95 215 1454.96 215C1454.97 215 1454.98 215 1454.99 215C1454.99 215 1455 215 1455.01 215C1455.02 215 1455.03 215 1455.04 215C1455.05 215 1455.06 215 1455.07 215C1455.08 215 1455.09 215 1455.1 215C1455.11 215 1455.12 215 1455.13 215C1455.13 215 1455.14 215 1455.15 215C1455.16 215 1455.17 215 1455.18 215C1455.19 215 1455.2 215 1455.21 215C1455.22 215 1455.23 215 1455.24 215C1455.25 215 1455.26 215 1455.27 215C1455.27 215 1455.28 215 1455.29 215C1455.3 215 1455.31 215 1455.32 215C1455.33 215 1455.34 215 1455.35 215C1455.36 215 1455.37 215 1455.38 215C1455.39 215 1455.4 215 1455.41 215C1455.41 215 1455.42 215 1455.43 215C1455.44 215 1455.45 215 1455.46 215C1455.47 215 1455.48 215 1455.49 215C1455.5 215 1455.51 215 1455.52 215C1455.53 215 1455.54 215 1455.55 215C1455.55 215 1455.56 215 1455.57 215C1455.58 215 1455.59 215 1455.6 215C1455.61 215 1455.62 215 1455.63 215C1455.64 215 1455.65 215 1455.66 215C1455.67 215 1455.68 215 1455.69 215C1455.7 215 1455.7 215 1455.71 215C1455.72 215 1455.73 215 1455.74 215C1455.75 215 1455.76 215 1455.77 215C1455.78 215 1455.79 215 1455.8 215C1455.81 215 1455.82 215 1455.83 215C1455.84 215 1455.84 215 1455.85 215C1455.86 215 1455.87 215 1455.88 215C1455.89 215 1455.9 215 1455.91 215C1455.92 215 1455.93 215 1455.94 215C1455.95 215 1455.96 215 1455.97 215C1455.98 215 1455.99 215 1455.99 215C1456 215 1456.01 215 1456.02 215C1456.03 215 1456.04 215 1456.05 215C1456.06 215 1456.07 215 1456.08 215C1456.09 215 1456.1 215 1456.11 215C1456.12 215 1456.13 215 1456.14 215C1456.14 215 1456.15 215 1456.16 215C1456.17 215 1456.18 215 1456.19 215C1456.2 215 1456.21 215 1456.22 215C1456.23 215 1456.24 215 1456.25 215C1456.26 215 1456.27 215 1456.28 215C1456.28 215 1456.29 215 1456.3 215C1456.31 215 1456.32 215 1456.33 215C1456.34 215 1456.35 215 1456.36 215C1456.37 215 1456.38 215 1456.39 215C1456.4 215 1456.41 215 1456.42 215C1456.43 215 1456.43 215 1456.44 215C1456.45 215 1456.46 215 1456.47 215C1456.48 215 1456.49 215 1456.5 215C1456.51 215 1456.52 215 1456.53 215C1456.54 215 1456.55 215 1456.56 215C1456.57 215 1456.58 215 1456.58 215C1456.59 215 1456.6 215 1456.61 215C1456.62 215 1456.63 215 1456.64 215C1456.65 215 1456.66 215 1456.67 215C1456.68 215 1456.69 215 1456.7 215C1456.71 215 1456.72 215 1456.73 215C1456.73 215 1456.74 215 1456.75 215C1456.76 215 1456.77 215 1456.78 215C1456.79 215 1456.8 215 1456.81 215C1456.82 215 1456.83 215 1456.84 215C1456.85 215 1456.86 215 1456.87 215C1456.88 215 1456.88 215 1456.89 215C1456.9 215 1456.91 215 1456.92 215C1456.93 215 1456.94 215 1456.95 215C1456.96 215 1456.97 215 1456.98 215C1456.99 215 1457 215 1457.01 215C1457.02 215 1457.03 215 1457.03 215C1457.04 215 1457.05 215 1457.06 215C1457.07 215 1457.08 215 1457.09 215C1457.1 215 1457.11 215 1457.12 215C1457.13 215 1457.14 215 1457.15 215C1457.16 215 1457.17 215 1457.18 215C1457.18 215 1457.19 215 1457.2 215C1457.21 215 1457.22 215 1457.23 215C1457.24 215 1457.25 215 1457.26 215C1457.27 215 1457.28 215 1457.29 215C1457.3 215 1457.31 215 1457.32 215C1457.33 215 1457.33 215 1457.34 215C1457.35 215 1457.36 215 1457.37 215C1457.38 215 1457.39 215 1457.4 215C1457.41 215 1457.42 215 1457.43 215C1457.44 215 1457.45 215 1457.46 215V213C1457.45 213 1457.44 213 1457.43 213C1457.42 213 1457.41 213 1457.4 213C1457.39 213 1457.38 213 1457.37 213C1457.36 213 1457.35 213 1457.34 213C1457.33 213 1457.33 213 1457.32 213C1457.31 213 1457.3 213 1457.29 213C1457.28 213 1457.27 213 1457.26 213C1457.25 213 1457.24 213 1457.23 213C1457.22 213 1457.21 213 1457.2 213C1457.19 213 1457.18 213 1457.18 213C1457.17 213 1457.16 213 1457.15 213C1457.14 213 1457.13 213 1457.12 213C1457.11 213 1457.1 213 1457.09 213C1457.08 213 1457.07 213 1457.06 213C1457.05 213 1457.04 213 1457.03 213C1457.03 213 1457.02 213 1457.01 213C1457 213 1456.99 213 1456.98 213C1456.97 213 1456.96 213 1456.95 213C1456.94 213 1456.93 213 1456.92 213C1456.91 213 1456.9 213 1456.89 213C1456.88 213 1456.88 213 1456.87 213C1456.86 213 1456.85 213 1456.84 213C1456.83 213 1456.82 213 1456.81 213C1456.8 213 1456.79 213 1456.78 213C1456.77 213 1456.76 213 1456.75 213C1456.74 213 1456.73 213 1456.73 213C1456.72 213 1456.71 213 1456.7 213C1456.69 213 1456.68 213 1456.67 213C1456.66 213 1456.65 213 1456.64 213C1456.63 213 1456.62 213 1456.61 213C1456.6 213 1456.59 213 1456.58 213C1456.58 213 1456.57 213 1456.56 213C1456.55 213 1456.54 213 1456.53 213C1456.52 213 1456.51 213 1456.5 213C1456.49 213 1456.48 213 1456.47 213C1456.46 213 1456.45 213 1456.44 213C1456.43 213 1456.43 213 1456.42 213C1456.41 213 1456.4 213 1456.39 213C1456.38 213 1456.37 213 1456.36 213C1456.35 213 1456.34 213 1456.33 213C1456.32 213 1456.31 213 1456.3 213C1456.29 213 1456.28 213 1456.28 213C1456.27 213 1456.26 213 1456.25 213C1456.24 213 1456.23 213 1456.22 213C1456.21 213 1456.2 213 1456.19 213C1456.18 213 1456.17 213 1456.16 213C1456.15 213 1456.14 213 1456.14 213C1456.13 213 1456.12 213 1456.11 213C1456.1 213 1456.09 213 1456.08 213C1456.07 213 1456.06 213 1456.05 213C1456.04 213 1456.03 213 1456.02 213C1456.01 213 1456 213 1455.99 213C1455.99 213 1455.98 213 1455.97 213C1455.96 213 1455.95 213 1455.94 213C1455.93 213 1455.92 213 1455.91 213C1455.9 213 1455.89 213 1455.88 213C1455.87 213 1455.86 213 1455.85 213C1455.84 213 1455.84 213 1455.83 213C1455.82 213 1455.81 213 1455.8 213C1455.79 213 1455.78 213 1455.77 213C1455.76 213 1455.75 213 1455.74 213C1455.73 213 1455.72 213 1455.71 213C1455.7 213 1455.7 213 1455.69 213C1455.68 213 1455.67 213 1455.66 213C1455.65 213 1455.64 213 1455.63 213C1455.62 213 1455.61 213 1455.6 213C1455.59 213 1455.58 213 1455.57 213C1455.56 213 1455.55 213 1455.55 213C1455.54 213 1455.53 213 1455.52 213C1455.51 213 1455.5 213 1455.49 213C1455.48 213 1455.47 213 1455.46 213C1455.45 213 1455.44 213 1455.43 213C1455.42 213 1455.41 213 1455.41 213C1455.4 213 1455.39 213 1455.38 213C1455.37 213 1455.36 213 1455.35 213C1455.34 213 1455.33 213 1455.32 213C1455.31 213 1455.3 213 1455.29 213C1455.28 213 1455.27 213 1455.27 213C1455.26 213 1455.25 213 1455.24 213C1455.23 213 1455.22 213 1455.21 213C1455.2 213 1455.19 213 1455.18 213C1455.17 213 1455.16 213 1455.15 213C1455.14 213 1455.13 213 1455.13 213C1455.12 213 1455.11 213 1455.1 213C1455.09 213 1455.08 213 1455.07 213C1455.06 213 1455.05 213 1455.04 213C1455.03 213 1455.02 213 1455.01 213C1455 213 1454.99 213 1454.99 213C1454.98 213 1454.97 213 1454.96 213C1454.95 213 1454.94 213 1454.93 213C1454.92 213 1454.91 213 1454.9 213C1454.89 213 1454.88 213 1454.87 213C1454.86 213 1454.85 213 1454.85 213C1454.84 213 1454.83 213 1454.82 213C1454.81 213 1454.8 213 1454.79 213C1454.78 213 1454.77 213 1454.76 213C1454.75 213 1454.74 213 1454.73 213C1454.72 213 1454.71 213 1454.71 213C1454.7 213 1454.69 213 1454.68 213C1454.67 213 1454.66 213 1454.65 213C1454.64 213 1454.63 213 1454.62 213C1454.61 213 1454.6 213 1454.59 213C1454.58 213 1454.58 213 1454.57 213C1454.56 213 1454.55 213 1454.54 213C1454.53 213 1454.52 213 1454.51 213C1454.5 213 1454.49 213 1454.48 213C1454.47 213 1454.46 213 1454.45 213C1454.44 213 1454.44 213 1454.43 213C1454.42 213 1454.41 213 1454.4 213C1454.39 213 1454.38 213 1454.37 213C1454.36 213 1454.35 213 1454.34 213C1454.33 213 1454.32 213 1454.31 213C1454.31 213 1454.3 213 1454.29 213C1454.28 213 1454.27 213 1454.26 213C1454.25 213 1454.24 213 1454.23 213C1454.22 213 1454.21 213 1454.2 213C1454.19 213 1454.18 213 1454.18 213C1454.17 213 1454.16 213 1454.15 213C1454.14 213 1454.13 213 1454.12 213C1454.11 213 1454.1 213 1454.09 213C1454.08 213 1454.07 213 1454.06 213C1454.05 213 1454.05 213 1454.04 213C1454.03 213 1454.02 213 1454.01 213C1454 213 1453.99 213 1453.98 213C1453.97 213 1453.96 213 1453.95 213C1453.94 213 1453.93 213 1453.92 213C1453.92 213 1453.91 213 1453.9 213C1453.89 213 1453.88 213 1453.87 213C1453.86 213 1453.85 213 1453.84 213C1453.83 213 1453.82 213 1453.81 213C1453.8 213 1453.79 213 1453.79 213C1453.78 213 1453.77 213 1453.76 213C1453.75 213 1453.74 213 1453.73 213C1453.72 213 1453.71 213 1453.7 213C1453.69 213 1453.68 213 1453.67 213C1453.66 213 1453.66 213 1453.65 213C1453.64 213 1453.63 213 1453.62 213C1453.61 213 1453.6 213 1453.59 213C1453.58 213 1453.57 213 1453.56 213C1453.55 213 1453.54 213 1453.54 213C1453.53 213 1453.52 213 1453.51 213C1453.5 213 1453.49 213 1453.48 213C1453.47 213 1453.46 213 1453.45 213C1453.44 213 1453.43 213 1453.42 213C1453.41 213 1453.41 213 1453.4 213C1453.39 213 1453.38 213 1453.37 213C1453.36 213 1453.35 213 1453.34 213C1453.33 213 1453.32 213 1453.31 213C1453.3 213 1453.29 213 1453.29 213C1453.28 213 1453.27 213 1453.26 213C1453.25 213 1453.24 213 1453.23 213C1453.22 213 1453.21 213 1453.2 213C1453.19 213 1453.18 213 1453.17 213C1453.17 213 1453.16 213 1453.15 213C1453.14 213 1453.13 213 1453.12 213C1453.11 213 1453.1 213 1453.09 213C1453.08 213 1453.07 213 1453.06 213C1453.05 213 1453.05 213 1453.04 213C1453.03 213 1453.02 213 1453.01 213C1453 213 1452.99 213 1452.98 213C1452.97 213 1452.96 213 1452.95 213C1452.94 213 1452.93 213 1452.93 213C1452.92 213 1452.91 213 1452.9 213C1452.89 213 1452.88 213 1452.87 213C1452.86 213 1452.85 213 1452.84 213C1452.83 213 1452.82 213 1452.81 213C1452.81 213 1452.8 213 1452.79 213C1452.78 213 1452.77 213 1452.76 213C1452.75 213 1452.74 213 1452.73 213C1452.72 213 1452.71 213 1452.7 213C1452.7 213 1452.69 213 1452.68 213C1452.67 213 1452.66 213 1452.65 213C1452.64 213 1452.63 213 1452.62 213C1452.61 213 1452.6 213 1452.59 213C1452.58 213 1452.58 213 1452.57 213C1452.56 213 1452.55 213 1452.54 213C1452.53 213 1452.52 213 1452.51 213C1452.5 213 1452.49 213 1452.48 213C1452.47 213 1452.47 213 1452.46 213C1452.45 213 1452.44 213 1452.43 213C1452.42 213 1452.41 213 1452.4 213C1452.39 213 1452.38 213 1452.37 213C1452.36 213 1452.36 213 1452.35 213C1452.34 213 1452.33 213 1452.32 213C1452.31 213 1452.3 213 1452.29 213C1452.28 213 1452.27 213 1452.26 213C1452.25 213 1452.25 213 1452.24 213C1452.23 213 1452.22 213 1452.21 213C1452.2 213 1452.19 213 1452.18 213C1452.17 213 1452.16 213 1452.15 213C1452.14 213 1452.14 213 1452.13 213C1452.12 213 1452.11 213 1452.1 213C1452.09 213 1452.08 213 1452.07 213C1452.06 213 1452.05 213 1452.04 213C1452.03 213 1452.03 213 1452.02 213C1452.01 213 1452 213 1451.99 213C1451.98 213 1451.97 213 1451.96 213C1451.95 213 1451.94 213 1451.93 213C1451.92 213 1451.92 213 1451.91 213C1451.9 213 1451.89 213 1451.88 213C1451.87 213 1451.86 213 1451.85 213C1451.84 213 1451.83 213 1451.82 213C1451.82 213 1451.81 213 1451.8 213C1451.79 213 1451.78 213 1451.77 213C1451.76 213 1451.75 213 1451.74 213C1451.73 213 1451.72 213 1451.71 213C1451.71 213 1451.7 213 1451.69 213C1451.68 213 1451.67 213 1451.66 213C1451.65 213 1451.64 213 1451.63 213C1451.62 213 1451.61 213 1451.61 213C1451.6 213 1451.59 213 1451.58 213C1451.57 213 1451.56 213 1451.55 213C1451.54 213 1451.53 213 1451.52 213C1451.51 213 1451.51 213 1451.5 213C1451.49 213 1451.48 213 1451.47 213C1451.46 213 1451.45 213 1451.44 213C1451.43 213 1451.42 213 1451.41 213C1451.4 213 1451.4 213 1451.39 213C1451.38 213 1451.37 213 1451.36 213C1451.35 213 1451.34 213 1451.33 213C1451.32 213 1451.31 213 1451.3 213C1451.3 213 1451.29 213 1451.28 213C1451.27 213 1451.26 213 1451.25 213C1451.24 213 1451.23 213 1451.22 213C1451.21 213 1451.21 213 1451.2 213C1451.19 213 1451.18 213 1451.17 213C1451.16 213 1451.15 213 1451.14 213C1451.13 213 1451.12 213 1451.11 213C1451.11 213 1451.1 213 1451.09 213C1451.08 213 1451.07 213 1451.06 213C1451.05 213 1451.04 213 1451.03 213C1451.02 213 1451.01 213 1451.01 213C1451 213 1450.99 213 1450.98 213C1450.97 213 1450.96 213 1450.95 213C1450.94 213 1450.93 213 1450.92 213C1450.92 213 1450.91 213 1450.9 213C1450.89 213 1450.88 213 1450.87 213C1450.86 213 1450.85 213 1450.84 213C1450.83 213 1450.82 213 1450.82 213C1450.81 213 1450.8 213 1450.79 213C1450.78 213 1450.77 213 1450.76 213C1450.75 213 1450.74 213 1450.73 213C1450.73 213 1450.72 213 1450.71 213C1450.7 213 1450.69 213 1450.68 213C1450.67 213 1450.66 213 1450.65 213C1450.64 213 1450.64 213 1450.63 213C1450.62 213 1450.61 213 1450.6 213C1450.59 213 1450.58 213 1450.57 213C1450.56 213 1450.55 213 1450.55 213C1450.54 213 1450.53 213 1450.52 213C1450.51 213 1450.5 213 1450.49 213C1450.48 213 1450.47 213 1450.46 213C1450.46 213 1450.45 213 1450.44 213C1450.43 213 1450.42 213 1450.41 213C1450.4 213 1450.39 213 1450.38 213C1450.37 213 1450.37 213 1450.36 213C1450.35 213 1450.34 213 1450.33 213C1450.32 213 1450.31 213 1450.3 213C1450.29 213 1450.28 213 1450.28 213C1450.27 213 1450.26 213 1450.25 213C1450.24 213 1450.23 213 1450.22 213C1450.21 213 1450.2 213 1450.19 213C1450.19 213 1450.18 213 1450.17 213C1450.16 213 1450.15 213 1450.14 213C1450.13 213 1450.12 213 1450.11 213C1450.11 213 1450.1 213 1450.09 213C1450.08 213 1450.07 213 1450.06 213C1450.05 213 1450.04 213 1450.03 213C1450.02 213 1450.02 213 1450.01 213C1450 213 1449.99 213 1449.98 213C1449.97 213 1449.96 213 1449.95 213C1449.94 213 1449.94 213 1449.93 213C1449.92 213 1449.91 213 1449.9 213C1449.89 213 1449.88 213 1449.87 213C1449.86 213 1449.85 213 1449.85 213C1449.84 213 1449.83 213 1449.82 213C1449.81 213 1449.8 213 1449.79 213C1449.78 213 1449.77 213 1449.77 213C1449.76 213 1449.75 213 1449.74 213C1449.73 213 1449.72 213 1449.71 213C1449.7 213 1449.69 213 1449.69 213C1449.68 213 1449.67 213 1449.66 213C1449.65 213 1449.64 213 1449.63 213C1449.62 213 1449.61 213 1449.61 213C1449.6 213 1449.59 213 1449.58 213C1449.57 213 1449.56 213 1449.55 213C1449.54 213 1449.53 213 1449.53 213C1449.52 213 1449.51 213 1449.5 213C1449.49 213 1449.48 213 1449.47 213C1449.46 213 1449.45 213 1449.45 213C1449.44 213 1449.43 213 1449.42 213C1449.41 213 1449.4 213 1449.39 213C1449.38 213 1449.37 213 1449.37 213C1449.36 213 1449.35 213 1449.34 213C1449.33 213 1449.32 213 1449.31 213C1449.3 213 1449.29 213 1449.29 213C1449.28 213 1449.27 213 1449.26 213C1449.25 213 1449.24 213 1449.23 213C1449.22 213 1449.22 213 1449.21 213C1449.2 213 1449.19 213 1449.18 213C1449.17 213 1449.16 213 1449.15 213C1449.14 213 1449.14 213 1449.13 213C1449.12 213 1449.11 213 1449.1 213C1449.09 213 1449.08 213 1449.07 213C1449.06 213 1449.06 213 1449.05 213C1449.04 213 1449.03 213 1449.02 213C1449.01 213 1449 213 1448.99 213C1448.99 213 1448.98 213 1448.97 213C1448.96 213 1448.95 213 1448.94 213C1448.93 213 1448.92 213 1448.92 213C1448.91 213 1448.9 213 1448.89 213C1448.88 213 1448.87 213 1448.86 213C1448.85 213 1448.84 213 1448.84 213C1448.83 213 1448.82 213 1448.81 213C1448.8 213 1448.79 213 1448.78 213C1448.77 213 1448.77 213 1448.76 213C1448.75 213 1448.74 213 1448.73 213C1448.72 213 1448.71 213 1448.7 213C1448.7 213 1448.69 213 1448.68 213C1448.67 213 1448.66 213 1448.65 213C1448.64 213 1448.63 213 1448.63 213C1448.62 213 1448.61 213 1448.6 213C1448.59 213 1448.58 213 1448.57 213C1448.56 213 1448.56 213 1448.55 213C1448.54 213 1448.53 213 1448.52 213C1448.51 213 1448.5 213 1448.49 213C1448.49 213 1448.48 213 1448.47 213C1448.46 213 1448.45 213 1448.44 213C1448.43 213 1448.42 213 1448.42 213C1448.41 213 1448.4 213 1448.39 213C1448.38 213 1448.37 213 1448.36 213C1448.35 213 1448.35 213 1448.34 213C1448.33 213 1448.32 213 1448.31 213C1448.3 213 1448.29 213 1448.28 213C1448.28 213 1448.27 213 1448.26 213C1448.25 213 1448.24 213 1448.23 213C1448.22 213 1448.21 213 1448.21 213C1448.2 213 1448.19 213 1448.18 213C1448.17 213 1448.16 213 1448.15 213C1448.15 213 1448.14 213 1448.13 213C1448.12 213 1448.11 213 1448.1 213C1448.09 213 1448.08 213 1448.08 213C1448.07 213 1448.06 213 1448.05 213C1448.04 213 1448.03 213 1448.02 213C1448.02 213 1448.01 213 1448 213C1447.99 213 1447.98 213 1447.97 213C1447.96 213 1447.95 213 1447.95 213C1447.94 213 1447.93 213 1447.92 213C1447.91 213 1447.9 213 1447.89 213C1447.89 213 1447.88 213 1447.87 213C1447.86 213 1447.85 213 1447.84 213C1447.83 213 1447.82 213 1447.82 213C1447.81 213 1447.8 213 1447.79 213C1447.78 213 1447.77 213 1447.76 213C1447.76 213 1447.75 213 1447.74 213C1447.73 213 1447.72 213 1447.71 213C1447.7 213 1447.7 213 1447.69 213C1447.68 213 1447.67 213 1447.66 213C1447.65 213 1447.64 213 1447.64 213C1447.63 213 1447.62 213 1447.61 213C1447.6 213 1447.59 213 1447.58 213C1447.57 213 1447.57 213 1447.56 213C1447.55 213 1447.54 213 1447.53 213C1447.52 213 1447.51 213 1447.51 213C1447.5 213 1447.49 213 1447.48 213C1447.47 213 1447.46 213 1447.45 213C1447.45 213 1447.44 213 1447.43 213C1447.42 213 1447.41 213 1447.4 213C1447.39 213 1447.39 213 1447.38 213C1447.37 213 1447.36 213 1447.35 213C1447.34 213 1447.33 213 1447.33 213C1447.32 213 1447.31 213 1447.3 213C1447.29 213 1447.28 213 1447.27 213C1447.27 213 1447.26 213 1447.25 213C1447.24 213 1447.23 213 1447.22 213C1447.22 213 1447.21 213 1447.2 213C1447.19 213 1447.18 213 1447.17 213C1447.16 213 1447.16 213 1447.15 213C1447.14 213 1447.13 213 1447.12 213C1447.11 213 1447.1 213 1447.1 213C1447.09 213 1447.08 213 1447.07 213C1447.06 213 1447.05 213 1447.04 213C1447.04 213 1447.03 213 1447.02 213C1447.01 213 1447 213 1446.99 213C1446.99 213 1446.98 213 1446.97 213C1446.96 213 1446.95 213 1446.94 213C1446.93 213 1446.93 213 1446.92 213C1446.91 213 1446.9 213 1446.89 213C1446.88 213 1446.87 213 1446.87 213C1446.86 213 1446.85 213 1446.84 213C1446.83 213 1446.82 213 1446.82 213C1446.81 213 1446.8 213 1446.79 213C1446.78 213 1446.77 213 1446.76 213C1446.76 213 1446.75 213 1446.74 213C1446.73 213 1446.72 213 1446.71 213C1446.71 213 1446.7 213 1446.69 213C1446.68 213 1446.67 213 1446.66 213C1446.66 213 1446.65 213 1446.64 213C1446.63 213 1446.62 213 1446.61 213C1446.6 213 1446.6 213 1446.59 213C1446.58 213 1446.57 213 1446.56 213C1446.55 213 1446.55 213 1446.54 213C1446.53 213 1446.52 213 1446.51 213C1446.5 213 1446.5 213 1446.49 213C1446.48 213 1446.47 213 1446.46 213C1446.45 213 1446.44 213 1446.44 213C1446.43 213 1446.42 213 1446.41 213C1446.4 213 1446.39 213 1446.39 213C1446.38 213 1446.37 213 1446.36 213C1446.35 213 1446.34 213 1446.34 213C1446.33 213 1446.32 213 1446.31 213C1446.3 213 1446.29 213 1446.29 213C1446.28 213 1446.27 213 1446.26 213C1446.25 213 1446.24 213 1446.24 213C1446.23 213 1446.22 213 1446.21 213C1446.2 213 1446.19 213 1446.19 213C1446.18 213 1446.17 213 1446.16 213C1446.15 213 1446.14 213 1446.14 213C1446.13 213 1446.12 213 1446.11 213C1446.1 213 1446.09 213 1446.09 213C1446.08 213 1446.07 213 1446.06 213C1446.05 213 1446.04 213 1446.04 213C1446.03 213 1446.02 213 1446.01 213C1446 213 1445.99 213 1445.99 213C1445.98 213 1445.97 213 1445.96 213C1445.95 213 1445.94 213 1445.94 213C1445.93 213 1445.92 213 1445.91 213C1445.9 213 1445.89 213 1445.89 213C1445.88 213 1445.87 213 1445.86 213C1445.85 213 1445.84 213 1445.84 213C1445.83 213 1445.82 213 1445.81 213C1445.8 213 1445.8 213 1445.79 213C1445.78 213 1445.77 213 1445.76 213C1445.75 213 1445.75 213 1445.74 213C1445.73 213 1445.72 213 1445.71 213C1445.7 213 1445.7 213 1445.69 213C1445.68 213 1445.67 213 1445.66 213C1445.65 213 1445.65 213 1445.64 213C1445.63 213 1445.62 213 1445.61 213C1445.61 213 1445.6 213 1445.59 213C1445.58 213 1445.57 213 1445.56 213C1445.56 213 1445.55 213 1445.54 213C1445.53 213 1445.52 213 1445.52 213C1445.51 213 1445.5 213 1445.49 213C1445.48 213 1445.47 213 1445.47 213C1445.46 213 1445.45 213 1445.44 213C1445.43 213 1445.42 213 1445.42 213C1445.41 213 1445.4 213 1445.39 213C1445.38 213 1445.38 213 1445.37 213C1445.36 213 1445.35 213 1445.34 213C1445.33 213 1445.33 213 1445.32 213C1445.31 213 1445.3 213 1445.29 213C1445.29 213 1445.28 213 1445.27 213C1445.26 213 1445.25 213 1445.25 213C1445.24 213 1445.23 213 1445.22 213C1445.21 213 1445.2 213 1445.2 213C1445.19 213 1445.18 213 1445.17 213C1445.16 213 1445.16 213 1445.15 213C1445.14 213 1445.13 213 1445.12 213C1445.12 213 1445.11 213 1445.1 213C1445.09 213 1445.08 213 1445.07 213C1445.07 213 1445.06 213 1445.05 213C1445.04 213 1445.03 213 1445.03 213C1445.02 213 1445.01 213 1445 213C1444.99 213 1444.99 213 1444.98 213C1444.97 213 1444.96 213 1444.95 213C1444.95 213 1444.94 213 1444.93 213C1444.92 213 1444.91 213 1444.9 213C1444.9 213 1444.89 213 1444.88 213C1444.87 213 1444.86 213 1444.86 213C1444.85 213 1444.84 213 1444.83 213C1444.82 213 1444.82 213 1444.81 213C1444.8 213 1444.79 213 1444.78 213C1444.78 213 1444.77 213 1444.76 213C1444.75 213 1444.74 213 1444.74 213C1444.73 213 1444.72 213 1444.71 213C1444.7 213 1444.7 213 1444.69 213C1444.68 213 1444.67 213 1444.66 213C1444.66 213 1444.65 213 1444.64 213C1444.63 213 1444.62 213 1444.62 213C1444.61 213 1444.6 213 1444.59 213C1444.58 213 1444.58 213 1444.57 213C1444.56 213 1444.55 213 1444.54 213C1444.54 213 1444.53 213 1444.52 213C1444.51 213 1444.5 213 1444.5 213C1444.49 213 1444.48 213 1444.47 213C1444.46 213 1444.46 213 1444.45 213C1444.44 213 1444.43 213 1444.42 213C1444.42 213 1444.41 213 1444.4 213C1444.39 213 1444.38 213 1444.38 213C1444.37 213 1444.36 213 1444.35 213C1444.34 213 1444.34 213 1444.33 213C1444.32 213 1444.31 213 1444.3 213C1444.3 213 1444.29 213 1444.28 213C1444.27 213 1444.27 213 1444.26 213C1444.25 213 1444.24 213 1444.23 213C1444.23 213 1444.22 213 1444.21 213C1444.2 213 1444.19 213 1444.19 213C1444.18 213 1444.17 213 1444.16 213C1444.15 213 1444.15 213 1444.14 213C1444.13 213 1444.12 213 1444.12 213C1444.11 213 1444.1 213 1444.09 213C1444.08 213 1444.08 213 1444.07 213C1444.06 213 1444.05 213 1444.04 213C1444.04 213 1444.03 213 1444.02 213C1444.01 213 1444.01 213 1444 213C1443.99 213 1443.98 213 1443.97 213C1443.97 213 1443.96 213 1443.95 213C1443.94 213 1443.93 213 1443.93 213C1443.92 213 1443.91 213 1443.9 213C1443.9 213 1443.89 213 1443.88 213C1443.87 213 1443.86 213 1443.86 213V215ZM1841.69 214L1841.7 213H1841.69V214ZM2049.69 622V623H2050.69V622H2049.69ZM1969.69 622H1968.69V623H1969.69V622ZM1969.69 570.8H1970.69V568.386L1968.98 570.093L1969.69 570.8ZM1841.69 285C1765.86 285 1712.69 346.329 1712.69 422H1714.69C1714.69 347.271 1767.12 287 1841.69 287V285ZM1712.69 422C1712.69 498.475 1765.86 559 1841.69 559V557C1767.11 557 1714.69 497.525 1714.69 422H1712.69ZM1841.69 559C1918.29 559 1973.89 498.504 1973.89 422H1971.89C1971.89 497.496 1917.09 557 1841.69 557V559ZM1973.89 422C1973.89 346.3 1918.29 285 1841.69 285V287C1917.08 287 1971.89 347.3 1971.89 422H1973.89ZM1841.68 215C1893.1 215.399 1944.85 230.745 1983.74 264.158C2022.59 297.55 2048.69 349.061 2048.69 422H2050.69C2050.69 348.539 2024.38 296.45 1985.04 262.642C1945.72 228.854 1893.48 213.401 1841.7 213L1841.68 215ZM2048.69 422V622H2050.69V422H2048.69ZM2049.69 621H1969.69V623H2049.69V621ZM1970.69 622V570.8H1968.69V622H1970.69ZM1968.98 570.093C1968.12 570.955 1921.21 629.8 1839.29 629.8V631.8C1880.74 631.8 1913.33 616.909 1935.64 601.93C1946.8 594.441 1955.4 586.926 1961.26 581.23C1964.19 578.381 1966.44 575.987 1967.98 574.277C1968.75 573.422 1969.34 572.739 1969.76 572.257C1969.96 572.016 1970.12 571.825 1970.24 571.691C1970.37 571.53 1970.41 571.495 1970.39 571.507L1968.98 570.093ZM1839.29 629.8H1838.49V631.8H1839.29V629.8ZM1838.49 629.8C1711.9 629.8 1632.29 533.51 1632.29 421.2H1630.29C1630.29 534.49 1710.68 631.8 1838.49 631.8V629.8ZM1632.29 421.2C1632.29 371.406 1648.62 319.85 1682.74 280.758C1716.84 241.687 1768.76 215 1840.09 215V213C1768.21 213 1715.73 239.913 1681.23 279.442C1646.75 318.95 1630.29 370.994 1630.29 421.2H1632.29ZM1840.09 215C1840.09 215 1840.09 215 1840.09 215C1840.09 215 1840.1 215 1840.1 215C1840.1 215 1840.1 215 1840.1 215C1840.1 215 1840.1 215 1840.11 215C1840.11 215 1840.11 215 1840.11 215C1840.11 215 1840.11 215 1840.12 215C1840.12 215 1840.12 215 1840.12 215C1840.12 215 1840.12 215 1840.12 215C1840.13 215 1840.13 215 1840.13 215C1840.13 215 1840.13 215 1840.13 215C1840.13 215 1840.14 215 1840.14 215C1840.14 215 1840.14 215 1840.14 215C1840.14 215 1840.15 215 1840.15 215C1840.15 215 1840.15 215 1840.15 215C1840.15 215 1840.15 215 1840.16 215C1840.16 215 1840.16 215 1840.16 215C1840.16 215 1840.16 215 1840.16 215C1840.17 215 1840.17 215 1840.17 215C1840.17 215 1840.17 215 1840.17 215C1840.17 215 1840.18 215 1840.18 215C1840.18 215 1840.18 215 1840.18 215C1840.18 215 1840.18 215 1840.19 215C1840.19 215 1840.19 215 1840.19 215C1840.19 215 1840.19 215 1840.19 215C1840.2 215 1840.2 215 1840.2 215C1840.2 215 1840.2 215 1840.2 215C1840.2 215 1840.21 215 1840.21 215C1840.21 215 1840.21 215 1840.21 215C1840.21 215 1840.21 215 1840.22 215C1840.22 215 1840.22 215 1840.22 215C1840.22 215 1840.22 215 1840.22 215C1840.23 215 1840.23 215 1840.23 215C1840.23 215 1840.23 215 1840.23 215C1840.23 215 1840.24 215 1840.24 215C1840.24 215 1840.24 215 1840.24 215C1840.24 215 1840.24 215 1840.24 215C1840.25 215 1840.25 215 1840.25 215C1840.25 215 1840.25 215 1840.25 215C1840.25 215 1840.26 215 1840.26 215C1840.26 215 1840.26 215 1840.26 215C1840.26 215 1840.26 215 1840.27 215C1840.27 215 1840.27 215 1840.27 215C1840.27 215 1840.27 215 1840.27 215C1840.27 215 1840.28 215 1840.28 215C1840.28 215 1840.28 215 1840.28 215C1840.28 215 1840.28 215 1840.28 215C1840.29 215 1840.29 215 1840.29 215C1840.29 215 1840.29 215 1840.29 215C1840.29 215 1840.3 215 1840.3 215C1840.3 215 1840.3 215 1840.3 215C1840.3 215 1840.3 215 1840.3 215C1840.31 215 1840.31 215 1840.31 215C1840.31 215 1840.31 215 1840.31 215C1840.31 215 1840.31 215 1840.32 215C1840.32 215 1840.32 215 1840.32 215C1840.32 215 1840.32 215 1840.32 215C1840.32 215 1840.33 215 1840.33 215C1840.33 215 1840.33 215 1840.33 215C1840.33 215 1840.33 215 1840.33 215C1840.34 215 1840.34 215 1840.34 215C1840.34 215 1840.34 215 1840.34 215C1840.34 215 1840.34 215 1840.35 215C1840.35 215 1840.35 215 1840.35 215C1840.35 215 1840.35 215 1840.35 215C1840.35 215 1840.36 215 1840.36 215C1840.36 215 1840.36 215 1840.36 215C1840.36 215 1840.36 215 1840.36 215C1840.37 215 1840.37 215 1840.37 215C1840.37 215 1840.37 215 1840.37 215C1840.37 215 1840.37 215 1840.37 215C1840.38 215 1840.38 215 1840.38 215C1840.38 215 1840.38 215 1840.38 215C1840.38 215 1840.38 215 1840.39 215C1840.39 215 1840.39 215 1840.39 215C1840.39 215 1840.39 215 1840.39 215C1840.39 215 1840.39 215 1840.4 215C1840.4 215 1840.4 215 1840.4 215C1840.4 215 1840.4 215 1840.4 215C1840.4 215 1840.41 215 1840.41 215C1840.41 215 1840.41 215 1840.41 215C1840.41 215 1840.41 215 1840.41 215C1840.41 215 1840.42 215 1840.42 215C1840.42 215 1840.42 215 1840.42 215C1840.42 215 1840.42 215 1840.42 215C1840.42 215 1840.43 215 1840.43 215C1840.43 215 1840.43 215 1840.43 215C1840.43 215 1840.43 215 1840.43 215C1840.43 215 1840.44 215 1840.44 215C1840.44 215 1840.44 215 1840.44 215C1840.44 215 1840.44 215 1840.44 215C1840.45 215 1840.45 215 1840.45 215C1840.45 215 1840.45 215 1840.45 215C1840.45 215 1840.45 215 1840.45 215C1840.45 215 1840.46 215 1840.46 215C1840.46 215 1840.46 215 1840.46 215C1840.46 215 1840.46 215 1840.46 215C1840.46 215 1840.47 215 1840.47 215C1840.47 215 1840.47 215 1840.47 215C1840.47 215 1840.47 215 1840.47 215C1840.47 215 1840.48 215 1840.48 215C1840.48 215 1840.48 215 1840.48 215C1840.48 215 1840.48 215 1840.48 215C1840.48 215 1840.49 215 1840.49 215C1840.49 215 1840.49 215 1840.49 215C1840.49 215 1840.49 215 1840.49 215C1840.49 215 1840.49 215 1840.5 215C1840.5 215 1840.5 215 1840.5 215C1840.5 215 1840.5 215 1840.5 215C1840.5 215 1840.5 215 1840.51 215C1840.51 215 1840.51 215 1840.51 215C1840.51 215 1840.51 215 1840.51 215C1840.51 215 1840.51 215 1840.51 215C1840.52 215 1840.52 215 1840.52 215C1840.52 215 1840.52 215 1840.52 215C1840.52 215 1840.52 215 1840.52 215C1840.52 215 1840.53 215 1840.53 215C1840.53 215 1840.53 215 1840.53 215C1840.53 215 1840.53 215 1840.53 215C1840.53 215 1840.53 215 1840.54 215C1840.54 215 1840.54 215 1840.54 215C1840.54 215 1840.54 215 1840.54 215C1840.54 215 1840.54 215 1840.54 215C1840.55 215 1840.55 215 1840.55 215C1840.55 215 1840.55 215 1840.55 215C1840.55 215 1840.55 215 1840.55 215C1840.55 215 1840.56 215 1840.56 215C1840.56 215 1840.56 215 1840.56 215C1840.56 215 1840.56 215 1840.56 215C1840.56 215 1840.56 215 1840.57 215C1840.57 215 1840.57 215 1840.57 215C1840.57 215 1840.57 215 1840.57 215C1840.57 215 1840.57 215 1840.57 215C1840.58 215 1840.58 215 1840.58 215C1840.58 215 1840.58 215 1840.58 215C1840.58 215 1840.58 215 1840.58 215C1840.58 215 1840.58 215 1840.59 215C1840.59 215 1840.59 215 1840.59 215C1840.59 215 1840.59 215 1840.59 215C1840.59 215 1840.59 215 1840.59 215C1840.6 215 1840.6 215 1840.6 215C1840.6 215 1840.6 215 1840.6 215C1840.6 215 1840.6 215 1840.6 215C1840.6 215 1840.6 215 1840.61 215C1840.61 215 1840.61 215 1840.61 215C1840.61 215 1840.61 215 1840.61 215C1840.61 215 1840.61 215 1840.61 215C1840.61 215 1840.62 215 1840.62 215C1840.62 215 1840.62 215 1840.62 215C1840.62 215 1840.62 215 1840.62 215C1840.62 215 1840.62 215 1840.62 215C1840.63 215 1840.63 215 1840.63 215C1840.63 215 1840.63 215 1840.63 215C1840.63 215 1840.63 215 1840.63 215C1840.63 215 1840.63 215 1840.64 215C1840.64 215 1840.64 215 1840.64 215C1840.64 215 1840.64 215 1840.64 215C1840.64 215 1840.64 215 1840.64 215C1840.64 215 1840.65 215 1840.65 215C1840.65 215 1840.65 215 1840.65 215C1840.65 215 1840.65 215 1840.65 215C1840.65 215 1840.65 215 1840.65 215C1840.66 215 1840.66 215 1840.66 215C1840.66 215 1840.66 215 1840.66 215C1840.66 215 1840.66 215 1840.66 215C1840.66 215 1840.66 215 1840.67 215C1840.67 215 1840.67 215 1840.67 215C1840.67 215 1840.67 215 1840.67 215C1840.67 215 1840.67 215 1840.67 215C1840.67 215 1840.67 215 1840.68 215C1840.68 215 1840.68 215 1840.68 215C1840.68 215 1840.68 215 1840.68 215C1840.68 215 1840.68 215 1840.68 215C1840.68 215 1840.69 215 1840.69 215C1840.69 215 1840.69 215 1840.69 215C1840.69 215 1840.69 215 1840.69 215C1840.69 215 1840.69 215 1840.69 215C1840.69 215 1840.7 215 1840.7 215C1840.7 215 1840.7 215 1840.7 215C1840.7 215 1840.7 215 1840.7 215C1840.7 215 1840.7 215 1840.7 215C1840.71 215 1840.71 215 1840.71 215C1840.71 215 1840.71 215 1840.71 215C1840.71 215 1840.71 215 1840.71 215C1840.71 215 1840.71 215 1840.71 215C1840.72 215 1840.72 215 1840.72 215C1840.72 215 1840.72 215 1840.72 215C1840.72 215 1840.72 215 1840.72 215C1840.72 215 1840.72 215 1840.72 215C1840.73 215 1840.73 215 1840.73 215C1840.73 215 1840.73 215 1840.73 215C1840.73 215 1840.73 215 1840.73 215C1840.73 215 1840.73 215 1840.73 215C1840.74 215 1840.74 215 1840.74 215C1840.74 215 1840.74 215 1840.74 215C1840.74 215 1840.74 215 1840.74 215C1840.74 215 1840.74 215 1840.74 215C1840.75 215 1840.75 215 1840.75 215C1840.75 215 1840.75 215 1840.75 215C1840.75 215 1840.75 215 1840.75 215C1840.75 215 1840.75 215 1840.75 215C1840.75 215 1840.76 215 1840.76 215C1840.76 215 1840.76 215 1840.76 215C1840.76 215 1840.76 215 1840.76 215C1840.76 215 1840.76 215 1840.76 215C1840.76 215 1840.77 215 1840.77 215C1840.77 215 1840.77 215 1840.77 215C1840.77 215 1840.77 215 1840.77 215C1840.77 215 1840.77 215 1840.77 215C1840.77 215 1840.78 215 1840.78 215C1840.78 215 1840.78 215 1840.78 215C1840.78 215 1840.78 215 1840.78 215C1840.78 215 1840.78 215 1840.78 215C1840.78 215 1840.78 215 1840.79 215C1840.79 215 1840.79 215 1840.79 215C1840.79 215 1840.79 215 1840.79 215C1840.79 215 1840.79 215 1840.79 215C1840.79 215 1840.79 215 1840.8 215C1840.8 215 1840.8 215 1840.8 215C1840.8 215 1840.8 215 1840.8 215C1840.8 215 1840.8 215 1840.8 215C1840.8 215 1840.8 215 1840.8 215C1840.81 215 1840.81 215 1840.81 215C1840.81 215 1840.81 215 1840.81 215C1840.81 215 1840.81 215 1840.81 215C1840.81 215 1840.81 215 1840.81 215C1840.82 215 1840.82 215 1840.82 215C1840.82 215 1840.82 215 1840.82 215C1840.82 215 1840.82 215 1840.82 215C1840.82 215 1840.82 215 1840.82 215C1840.82 215 1840.83 215 1840.83 215C1840.83 215 1840.83 215 1840.83 215C1840.83 215 1840.83 215 1840.83 215C1840.83 215 1840.83 215 1840.83 215C1840.83 215 1840.84 215 1840.84 215C1840.84 215 1840.84 215 1840.84 215C1840.84 215 1840.84 215 1840.84 215C1840.84 215 1840.84 215 1840.84 215C1840.84 215 1840.84 215 1840.85 215C1840.85 215 1840.85 215 1840.85 215C1840.85 215 1840.85 215 1840.85 215C1840.85 215 1840.85 215 1840.85 215C1840.85 215 1840.85 215 1840.85 215C1840.86 215 1840.86 215 1840.86 215C1840.86 215 1840.86 215 1840.86 215C1840.86 215 1840.86 215 1840.86 215C1840.86 215 1840.86 215 1840.86 215C1840.86 215 1840.87 215 1840.87 215C1840.87 215 1840.87 215 1840.87 215C1840.87 215 1840.87 215 1840.87 215C1840.87 215 1840.87 215 1840.87 215C1840.87 215 1840.88 215 1840.88 215C1840.88 215 1840.88 215 1840.88 215C1840.88 215 1840.88 215 1840.88 215C1840.88 215 1840.88 215 1840.88 215C1840.88 215 1840.88 215 1840.89 215C1840.89 215 1840.89 215 1840.89 215C1840.89 215 1840.89 215 1840.89 215C1840.89 215 1840.89 215 1840.89 215C1840.89 215 1840.89 215 1840.89 215C1840.9 215 1840.9 215 1840.9 215C1840.9 215 1840.9 215 1840.9 215C1840.9 215 1840.9 215 1840.9 215C1840.9 215 1840.9 215 1840.9 215C1840.9 215 1840.91 215 1840.91 215C1840.91 215 1840.91 215 1840.91 215C1840.91 215 1840.91 215 1840.91 215C1840.91 215 1840.91 215 1840.91 215C1840.91 215 1840.91 215 1840.92 215C1840.92 215 1840.92 215 1840.92 215C1840.92 215 1840.92 215 1840.92 215C1840.92 215 1840.92 215 1840.92 215C1840.92 215 1840.92 215 1840.93 215C1840.93 215 1840.93 215 1840.93 215C1840.93 215 1840.93 215 1840.93 215C1840.93 215 1840.93 215 1840.93 215C1840.93 215 1840.93 215 1840.93 215C1840.94 215 1840.94 215 1840.94 215C1840.94 215 1840.94 215 1840.94 215C1840.94 215 1840.94 215 1840.94 215C1840.94 215 1840.94 215 1840.94 215C1840.94 215 1840.95 215 1840.95 215C1840.95 215 1840.95 215 1840.95 215C1840.95 215 1840.95 215 1840.95 215C1840.95 215 1840.95 215 1840.95 215C1840.95 215 1840.95 215 1840.96 215C1840.96 215 1840.96 215 1840.96 215C1840.96 215 1840.96 215 1840.96 215C1840.96 215 1840.96 215 1840.96 215C1840.96 215 1840.96 215 1840.97 215C1840.97 215 1840.97 215 1840.97 215C1840.97 215 1840.97 215 1840.97 215C1840.97 215 1840.97 215 1840.97 215C1840.97 215 1840.97 215 1840.97 215C1840.98 215 1840.98 215 1840.98 215C1840.98 215 1840.98 215 1840.98 215C1840.98 215 1840.98 215 1840.98 215C1840.98 215 1840.98 215 1840.98 215C1840.99 215 1840.99 215 1840.99 215C1840.99 215 1840.99 215 1840.99 215C1840.99 215 1840.99 215 1840.99 215C1840.99 215 1840.99 215 1840.99 215C1840.99 215 1841 215 1841 215C1841 215 1841 215 1841 215C1841 215 1841 215 1841 215C1841 215 1841 215 1841 215C1841 215 1841.01 215 1841.01 215C1841.01 215 1841.01 215 1841.01 215C1841.01 215 1841.01 215 1841.01 215C1841.01 215 1841.01 215 1841.01 215C1841.01 215 1841.02 215 1841.02 215C1841.02 215 1841.02 215 1841.02 215C1841.02 215 1841.02 215 1841.02 215C1841.02 215 1841.02 215 1841.02 215C1841.02 215 1841.02 215 1841.03 215C1841.03 215 1841.03 215 1841.03 215C1841.03 215 1841.03 215 1841.03 215C1841.03 215 1841.03 215 1841.03 215C1841.03 215 1841.03 215 1841.04 215C1841.04 215 1841.04 215 1841.04 215C1841.04 215 1841.04 215 1841.04 215C1841.04 215 1841.04 215 1841.04 215C1841.04 215 1841.04 215 1841.05 215C1841.05 215 1841.05 215 1841.05 215C1841.05 215 1841.05 215 1841.05 215C1841.05 215 1841.05 215 1841.05 215C1841.05 215 1841.05 215 1841.06 215C1841.06 215 1841.06 215 1841.06 215C1841.06 215 1841.06 215 1841.06 215C1841.06 215 1841.06 215 1841.06 215C1841.06 215 1841.06 215 1841.07 215C1841.07 215 1841.07 215 1841.07 215C1841.07 215 1841.07 215 1841.07 215C1841.07 215 1841.07 215 1841.07 215C1841.07 215 1841.08 215 1841.08 215C1841.08 215 1841.08 215 1841.08 215C1841.08 215 1841.08 215 1841.08 215C1841.08 215 1841.08 215 1841.08 215C1841.08 215 1841.09 215 1841.09 215C1841.09 215 1841.09 215 1841.09 215C1841.09 215 1841.09 215 1841.09 215C1841.09 215 1841.09 215 1841.09 215C1841.09 215 1841.1 215 1841.1 215C1841.1 215 1841.1 215 1841.1 215C1841.1 215 1841.1 215 1841.1 215C1841.1 215 1841.1 215 1841.1 215C1841.11 215 1841.11 215 1841.11 215C1841.11 215 1841.11 215 1841.11 215C1841.11 215 1841.11 215 1841.11 215C1841.11 215 1841.11 215 1841.12 215C1841.12 215 1841.12 215 1841.12 215C1841.12 215 1841.12 215 1841.12 215C1841.12 215 1841.12 215 1841.12 215C1841.12 215 1841.12 215 1841.13 215C1841.13 215 1841.13 215 1841.13 215C1841.13 215 1841.13 215 1841.13 215C1841.13 215 1841.13 215 1841.13 215C1841.13 215 1841.14 215 1841.14 215C1841.14 215 1841.14 215 1841.14 215C1841.14 215 1841.14 215 1841.14 215C1841.14 215 1841.14 215 1841.14 215C1841.15 215 1841.15 215 1841.15 215C1841.15 215 1841.15 215 1841.15 215C1841.15 215 1841.15 215 1841.15 215C1841.15 215 1841.15 215 1841.16 215C1841.16 215 1841.16 215 1841.16 215C1841.16 215 1841.16 215 1841.16 215C1841.16 215 1841.16 215 1841.16 215C1841.16 215 1841.17 215 1841.17 215C1841.17 215 1841.17 215 1841.17 215C1841.17 215 1841.17 215 1841.17 215C1841.17 215 1841.17 215 1841.18 215C1841.18 215 1841.18 215 1841.18 215C1841.18 215 1841.18 215 1841.18 215C1841.18 215 1841.18 215 1841.18 215C1841.18 215 1841.19 215 1841.19 215C1841.19 215 1841.19 215 1841.19 215C1841.19 215 1841.19 215 1841.19 215C1841.19 215 1841.19 215 1841.2 215C1841.2 215 1841.2 215 1841.2 215C1841.2 215 1841.2 215 1841.2 215C1841.2 215 1841.2 215 1841.2 215C1841.2 215 1841.21 215 1841.21 215C1841.21 215 1841.21 215 1841.21 215C1841.21 215 1841.21 215 1841.21 215C1841.21 215 1841.21 215 1841.22 215C1841.22 215 1841.22 215 1841.22 215C1841.22 215 1841.22 215 1841.22 215C1841.22 215 1841.22 215 1841.22 215C1841.23 215 1841.23 215 1841.23 215C1841.23 215 1841.23 215 1841.23 215C1841.23 215 1841.23 215 1841.23 215C1841.23 215 1841.24 215 1841.24 215C1841.24 215 1841.24 215 1841.24 215C1841.24 215 1841.24 215 1841.24 215C1841.24 215 1841.24 215 1841.25 215C1841.25 215 1841.25 215 1841.25 215C1841.25 215 1841.25 215 1841.25 215C1841.25 215 1841.25 215 1841.25 215C1841.26 215 1841.26 215 1841.26 215C1841.26 215 1841.26 215 1841.26 215C1841.26 215 1841.26 215 1841.26 215C1841.26 215 1841.27 215 1841.27 215C1841.27 215 1841.27 215 1841.27 215C1841.27 215 1841.27 215 1841.27 215C1841.27 215 1841.28 215 1841.28 215C1841.28 215 1841.28 215 1841.28 215C1841.28 215 1841.28 215 1841.28 215C1841.28 215 1841.28 215 1841.29 215C1841.29 215 1841.29 215 1841.29 215C1841.29 215 1841.29 215 1841.29 215C1841.29 215 1841.29 215 1841.3 215C1841.3 215 1841.3 215 1841.3 215C1841.3 215 1841.3 215 1841.3 215C1841.3 215 1841.3 215 1841.3 215C1841.31 215 1841.31 215 1841.31 215C1841.31 215 1841.31 215 1841.31 215C1841.31 215 1841.31 215 1841.31 215C1841.32 215 1841.32 215 1841.32 215C1841.32 215 1841.32 215 1841.32 215C1841.32 215 1841.32 215 1841.32 215C1841.33 215 1841.33 215 1841.33 215C1841.33 215 1841.33 215 1841.33 215C1841.33 215 1841.33 215 1841.33 215C1841.34 215 1841.34 215 1841.34 215C1841.34 215 1841.34 215 1841.34 215C1841.34 215 1841.34 215 1841.34 215C1841.35 215 1841.35 215 1841.35 215C1841.35 215 1841.35 215 1841.35 215C1841.35 215 1841.35 215 1841.35 215C1841.36 215 1841.36 215 1841.36 215C1841.36 215 1841.36 215 1841.36 215C1841.36 215 1841.36 215 1841.37 215C1841.37 215 1841.37 215 1841.37 215C1841.37 215 1841.37 215 1841.37 215C1841.37 215 1841.37 215 1841.38 215C1841.38 215 1841.38 215 1841.38 215C1841.38 215 1841.38 215 1841.38 215C1841.38 215 1841.38 215 1841.39 215C1841.39 215 1841.39 215 1841.39 215C1841.39 215 1841.39 215 1841.39 215C1841.39 215 1841.4 215 1841.4 215C1841.4 215 1841.4 215 1841.4 215C1841.4 215 1841.4 215 1841.4 215C1841.4 215 1841.41 215 1841.41 215C1841.41 215 1841.41 215 1841.41 215C1841.41 215 1841.41 215 1841.41 215C1841.42 215 1841.42 215 1841.42 215C1841.42 215 1841.42 215 1841.42 215C1841.42 215 1841.42 215 1841.43 215C1841.43 215 1841.43 215 1841.43 215C1841.43 215 1841.43 215 1841.43 215C1841.43 215 1841.44 215 1841.44 215C1841.44 215 1841.44 215 1841.44 215C1841.44 215 1841.44 215 1841.44 215C1841.45 215 1841.45 215 1841.45 215C1841.45 215 1841.45 215 1841.45 215C1841.45 215 1841.45 215 1841.46 215C1841.46 215 1841.46 215 1841.46 215C1841.46 215 1841.46 215 1841.46 215C1841.46 215 1841.47 215 1841.47 215C1841.47 215 1841.47 215 1841.47 215C1841.47 215 1841.47 215 1841.47 215C1841.48 215 1841.48 215 1841.48 215C1841.48 215 1841.48 215 1841.48 215C1841.48 215 1841.48 215 1841.49 215C1841.49 215 1841.49 215 1841.49 215C1841.49 215 1841.49 215 1841.49 215C1841.5 215 1841.5 215 1841.5 215C1841.5 215 1841.5 215 1841.5 215C1841.5 215 1841.5 215 1841.51 215C1841.51 215 1841.51 215 1841.51 215C1841.51 215 1841.51 215 1841.51 215C1841.52 215 1841.52 215 1841.52 215C1841.52 215 1841.52 215 1841.52 215C1841.52 215 1841.52 215 1841.53 215C1841.53 215 1841.53 215 1841.53 215C1841.53 215 1841.53 215 1841.53 215C1841.54 215 1841.54 215 1841.54 215C1841.54 215 1841.54 215 1841.54 215C1841.54 215 1841.55 215 1841.55 215C1841.55 215 1841.55 215 1841.55 215C1841.55 215 1841.55 215 1841.55 215C1841.56 215 1841.56 215 1841.56 215C1841.56 215 1841.56 215 1841.56 215C1841.56 215 1841.57 215 1841.57 215C1841.57 215 1841.57 215 1841.57 215C1841.57 215 1841.57 215 1841.58 215C1841.58 215 1841.58 215 1841.58 215C1841.58 215 1841.58 215 1841.58 215C1841.59 215 1841.59 215 1841.59 215C1841.59 215 1841.59 215 1841.59 215C1841.59 215 1841.6 215 1841.6 215C1841.6 215 1841.6 215 1841.6 215C1841.6 215 1841.6 215 1841.61 215C1841.61 215 1841.61 215 1841.61 215C1841.61 215 1841.61 215 1841.61 215C1841.62 215 1841.62 215 1841.62 215C1841.62 215 1841.62 215 1841.62 215C1841.63 215 1841.63 215 1841.63 215C1841.63 215 1841.63 215 1841.63 215C1841.63 215 1841.64 215 1841.64 215C1841.64 215 1841.64 215 1841.64 215C1841.64 215 1841.64 215 1841.65 215C1841.65 215 1841.65 215 1841.65 215C1841.65 215 1841.65 215 1841.66 215C1841.66 215 1841.66 215 1841.66 215C1841.66 215 1841.66 215 1841.66 215C1841.67 215 1841.67 215 1841.67 215C1841.67 215 1841.67 215 1841.67 215C1841.68 215 1841.68 215 1841.68 215C1841.68 215 1841.68 215 1841.68 215C1841.68 215 1841.69 215 1841.69 215V213C1841.69 213 1841.68 213 1841.68 213C1841.68 213 1841.68 213 1841.68 213C1841.68 213 1841.68 213 1841.67 213C1841.67 213 1841.67 213 1841.67 213C1841.67 213 1841.67 213 1841.66 213C1841.66 213 1841.66 213 1841.66 213C1841.66 213 1841.66 213 1841.66 213C1841.65 213 1841.65 213 1841.65 213C1841.65 213 1841.65 213 1841.65 213C1841.64 213 1841.64 213 1841.64 213C1841.64 213 1841.64 213 1841.64 213C1841.64 213 1841.63 213 1841.63 213C1841.63 213 1841.63 213 1841.63 213C1841.63 213 1841.63 213 1841.62 213C1841.62 213 1841.62 213 1841.62 213C1841.62 213 1841.62 213 1841.61 213C1841.61 213 1841.61 213 1841.61 213C1841.61 213 1841.61 213 1841.61 213C1841.6 213 1841.6 213 1841.6 213C1841.6 213 1841.6 213 1841.6 213C1841.6 213 1841.59 213 1841.59 213C1841.59 213 1841.59 213 1841.59 213C1841.59 213 1841.59 213 1841.58 213C1841.58 213 1841.58 213 1841.58 213C1841.58 213 1841.58 213 1841.58 213C1841.57 213 1841.57 213 1841.57 213C1841.57 213 1841.57 213 1841.57 213C1841.57 213 1841.56 213 1841.56 213C1841.56 213 1841.56 213 1841.56 213C1841.56 213 1841.56 213 1841.55 213C1841.55 213 1841.55 213 1841.55 213C1841.55 213 1841.55 213 1841.55 213C1841.55 213 1841.54 213 1841.54 213C1841.54 213 1841.54 213 1841.54 213C1841.54 213 1841.54 213 1841.53 213C1841.53 213 1841.53 213 1841.53 213C1841.53 213 1841.53 213 1841.53 213C1841.52 213 1841.52 213 1841.52 213C1841.52 213 1841.52 213 1841.52 213C1841.52 213 1841.52 213 1841.51 213C1841.51 213 1841.51 213 1841.51 213C1841.51 213 1841.51 213 1841.51 213C1841.5 213 1841.5 213 1841.5 213C1841.5 213 1841.5 213 1841.5 213C1841.5 213 1841.5 213 1841.49 213C1841.49 213 1841.49 213 1841.49 213C1841.49 213 1841.49 213 1841.49 213C1841.48 213 1841.48 213 1841.48 213C1841.48 213 1841.48 213 1841.48 213C1841.48 213 1841.48 213 1841.47 213C1841.47 213 1841.47 213 1841.47 213C1841.47 213 1841.47 213 1841.47 213C1841.47 213 1841.46 213 1841.46 213C1841.46 213 1841.46 213 1841.46 213C1841.46 213 1841.46 213 1841.46 213C1841.45 213 1841.45 213 1841.45 213C1841.45 213 1841.45 213 1841.45 213C1841.45 213 1841.45 213 1841.44 213C1841.44 213 1841.44 213 1841.44 213C1841.44 213 1841.44 213 1841.44 213C1841.44 213 1841.43 213 1841.43 213C1841.43 213 1841.43 213 1841.43 213C1841.43 213 1841.43 213 1841.43 213C1841.42 213 1841.42 213 1841.42 213C1841.42 213 1841.42 213 1841.42 213C1841.42 213 1841.42 213 1841.41 213C1841.41 213 1841.41 213 1841.41 213C1841.41 213 1841.41 213 1841.41 213C1841.41 213 1841.4 213 1841.4 213C1841.4 213 1841.4 213 1841.4 213C1841.4 213 1841.4 213 1841.4 213C1841.4 213 1841.39 213 1841.39 213C1841.39 213 1841.39 213 1841.39 213C1841.39 213 1841.39 213 1841.39 213C1841.38 213 1841.38 213 1841.38 213C1841.38 213 1841.38 213 1841.38 213C1841.38 213 1841.38 213 1841.38 213C1841.37 213 1841.37 213 1841.37 213C1841.37 213 1841.37 213 1841.37 213C1841.37 213 1841.37 213 1841.37 213C1841.36 213 1841.36 213 1841.36 213C1841.36 213 1841.36 213 1841.36 213C1841.36 213 1841.36 213 1841.35 213C1841.35 213 1841.35 213 1841.35 213C1841.35 213 1841.35 213 1841.35 213C1841.35 213 1841.35 213 1841.34 213C1841.34 213 1841.34 213 1841.34 213C1841.34 213 1841.34 213 1841.34 213C1841.34 213 1841.34 213 1841.33 213C1841.33 213 1841.33 213 1841.33 213C1841.33 213 1841.33 213 1841.33 213C1841.33 213 1841.33 213 1841.32 213C1841.32 213 1841.32 213 1841.32 213C1841.32 213 1841.32 213 1841.32 213C1841.32 213 1841.32 213 1841.31 213C1841.31 213 1841.31 213 1841.31 213C1841.31 213 1841.31 213 1841.31 213C1841.31 213 1841.31 213 1841.3 213C1841.3 213 1841.3 213 1841.3 213C1841.3 213 1841.3 213 1841.3 213C1841.3 213 1841.3 213 1841.3 213C1841.29 213 1841.29 213 1841.29 213C1841.29 213 1841.29 213 1841.29 213C1841.29 213 1841.29 213 1841.29 213C1841.28 213 1841.28 213 1841.28 213C1841.28 213 1841.28 213 1841.28 213C1841.28 213 1841.28 213 1841.28 213C1841.28 213 1841.27 213 1841.27 213C1841.27 213 1841.27 213 1841.27 213C1841.27 213 1841.27 213 1841.27 213C1841.27 213 1841.26 213 1841.26 213C1841.26 213 1841.26 213 1841.26 213C1841.26 213 1841.26 213 1841.26 213C1841.26 213 1841.26 213 1841.25 213C1841.25 213 1841.25 213 1841.25 213C1841.25 213 1841.25 213 1841.25 213C1841.25 213 1841.25 213 1841.25 213C1841.24 213 1841.24 213 1841.24 213C1841.24 213 1841.24 213 1841.24 213C1841.24 213 1841.24 213 1841.24 213C1841.24 213 1841.23 213 1841.23 213C1841.23 213 1841.23 213 1841.23 213C1841.23 213 1841.23 213 1841.23 213C1841.23 213 1841.23 213 1841.22 213C1841.22 213 1841.22 213 1841.22 213C1841.22 213 1841.22 213 1841.22 213C1841.22 213 1841.22 213 1841.22 213C1841.21 213 1841.21 213 1841.21 213C1841.21 213 1841.21 213 1841.21 213C1841.21 213 1841.21 213 1841.21 213C1841.21 213 1841.2 213 1841.2 213C1841.2 213 1841.2 213 1841.2 213C1841.2 213 1841.2 213 1841.2 213C1841.2 213 1841.2 213 1841.2 213C1841.19 213 1841.19 213 1841.19 213C1841.19 213 1841.19 213 1841.19 213C1841.19 213 1841.19 213 1841.19 213C1841.19 213 1841.18 213 1841.18 213C1841.18 213 1841.18 213 1841.18 213C1841.18 213 1841.18 213 1841.18 213C1841.18 213 1841.18 213 1841.18 213C1841.17 213 1841.17 213 1841.17 213C1841.17 213 1841.17 213 1841.17 213C1841.17 213 1841.17 213 1841.17 213C1841.17 213 1841.16 213 1841.16 213C1841.16 213 1841.16 213 1841.16 213C1841.16 213 1841.16 213 1841.16 213C1841.16 213 1841.16 213 1841.16 213C1841.15 213 1841.15 213 1841.15 213C1841.15 213 1841.15 213 1841.15 213C1841.15 213 1841.15 213 1841.15 213C1841.15 213 1841.15 213 1841.14 213C1841.14 213 1841.14 213 1841.14 213C1841.14 213 1841.14 213 1841.14 213C1841.14 213 1841.14 213 1841.14 213C1841.14 213 1841.13 213 1841.13 213C1841.13 213 1841.13 213 1841.13 213C1841.13 213 1841.13 213 1841.13 213C1841.13 213 1841.13 213 1841.13 213C1841.12 213 1841.12 213 1841.12 213C1841.12 213 1841.12 213 1841.12 213C1841.12 213 1841.12 213 1841.12 213C1841.12 213 1841.12 213 1841.12 213C1841.11 213 1841.11 213 1841.11 213C1841.11 213 1841.11 213 1841.11 213C1841.11 213 1841.11 213 1841.11 213C1841.11 213 1841.11 213 1841.1 213C1841.1 213 1841.1 213 1841.1 213C1841.1 213 1841.1 213 1841.1 213C1841.1 213 1841.1 213 1841.1 213C1841.1 213 1841.09 213 1841.09 213C1841.09 213 1841.09 213 1841.09 213C1841.09 213 1841.09 213 1841.09 213C1841.09 213 1841.09 213 1841.09 213C1841.09 213 1841.08 213 1841.08 213C1841.08 213 1841.08 213 1841.08 213C1841.08 213 1841.08 213 1841.08 213C1841.08 213 1841.08 213 1841.08 213C1841.08 213 1841.07 213 1841.07 213C1841.07 213 1841.07 213 1841.07 213C1841.07 213 1841.07 213 1841.07 213C1841.07 213 1841.07 213 1841.07 213C1841.06 213 1841.06 213 1841.06 213C1841.06 213 1841.06 213 1841.06 213C1841.06 213 1841.06 213 1841.06 213C1841.06 213 1841.06 213 1841.06 213C1841.05 213 1841.05 213 1841.05 213C1841.05 213 1841.05 213 1841.05 213C1841.05 213 1841.05 213 1841.05 213C1841.05 213 1841.05 213 1841.05 213C1841.04 213 1841.04 213 1841.04 213C1841.04 213 1841.04 213 1841.04 213C1841.04 213 1841.04 213 1841.04 213C1841.04 213 1841.04 213 1841.04 213C1841.03 213 1841.03 213 1841.03 213C1841.03 213 1841.03 213 1841.03 213C1841.03 213 1841.03 213 1841.03 213C1841.03 213 1841.03 213 1841.03 213C1841.02 213 1841.02 213 1841.02 213C1841.02 213 1841.02 213 1841.02 213C1841.02 213 1841.02 213 1841.02 213C1841.02 213 1841.02 213 1841.02 213C1841.02 213 1841.01 213 1841.01 213C1841.01 213 1841.01 213 1841.01 213C1841.01 213 1841.01 213 1841.01 213C1841.01 213 1841.01 213 1841.01 213C1841.01 213 1841 213 1841 213C1841 213 1841 213 1841 213C1841 213 1841 213 1841 213C1841 213 1841 213 1841 213C1841 213 1840.99 213 1840.99 213C1840.99 213 1840.99 213 1840.99 213C1840.99 213 1840.99 213 1840.99 213C1840.99 213 1840.99 213 1840.99 213C1840.99 213 1840.99 213 1840.98 213C1840.98 213 1840.98 213 1840.98 213C1840.98 213 1840.98 213 1840.98 213C1840.98 213 1840.98 213 1840.98 213C1840.98 213 1840.98 213 1840.97 213C1840.97 213 1840.97 213 1840.97 213C1840.97 213 1840.97 213 1840.97 213C1840.97 213 1840.97 213 1840.97 213C1840.97 213 1840.97 213 1840.97 213C1840.96 213 1840.96 213 1840.96 213C1840.96 213 1840.96 213 1840.96 213C1840.96 213 1840.96 213 1840.96 213C1840.96 213 1840.96 213 1840.96 213C1840.95 213 1840.95 213 1840.95 213C1840.95 213 1840.95 213 1840.95 213C1840.95 213 1840.95 213 1840.95 213C1840.95 213 1840.95 213 1840.95 213C1840.95 213 1840.94 213 1840.94 213C1840.94 213 1840.94 213 1840.94 213C1840.94 213 1840.94 213 1840.94 213C1840.94 213 1840.94 213 1840.94 213C1840.94 213 1840.94 213 1840.93 213C1840.93 213 1840.93 213 1840.93 213C1840.93 213 1840.93 213 1840.93 213C1840.93 213 1840.93 213 1840.93 213C1840.93 213 1840.93 213 1840.93 213C1840.92 213 1840.92 213 1840.92 213C1840.92 213 1840.92 213 1840.92 213C1840.92 213 1840.92 213 1840.92 213C1840.92 213 1840.92 213 1840.92 213C1840.91 213 1840.91 213 1840.91 213C1840.91 213 1840.91 213 1840.91 213C1840.91 213 1840.91 213 1840.91 213C1840.91 213 1840.91 213 1840.91 213C1840.91 213 1840.9 213 1840.9 213C1840.9 213 1840.9 213 1840.9 213C1840.9 213 1840.9 213 1840.9 213C1840.9 213 1840.9 213 1840.9 213C1840.9 213 1840.9 213 1840.89 213C1840.89 213 1840.89 213 1840.89 213C1840.89 213 1840.89 213 1840.89 213C1840.89 213 1840.89 213 1840.89 213C1840.89 213 1840.89 213 1840.89 213C1840.88 213 1840.88 213 1840.88 213C1840.88 213 1840.88 213 1840.88 213C1840.88 213 1840.88 213 1840.88 213C1840.88 213 1840.88 213 1840.88 213C1840.88 213 1840.87 213 1840.87 213C1840.87 213 1840.87 213 1840.87 213C1840.87 213 1840.87 213 1840.87 213C1840.87 213 1840.87 213 1840.87 213C1840.87 213 1840.86 213 1840.86 213C1840.86 213 1840.86 213 1840.86 213C1840.86 213 1840.86 213 1840.86 213C1840.86 213 1840.86 213 1840.86 213C1840.86 213 1840.86 213 1840.85 213C1840.85 213 1840.85 213 1840.85 213C1840.85 213 1840.85 213 1840.85 213C1840.85 213 1840.85 213 1840.85 213C1840.85 213 1840.85 213 1840.85 213C1840.84 213 1840.84 213 1840.84 213C1840.84 213 1840.84 213 1840.84 213C1840.84 213 1840.84 213 1840.84 213C1840.84 213 1840.84 213 1840.84 213C1840.84 213 1840.83 213 1840.83 213C1840.83 213 1840.83 213 1840.83 213C1840.83 213 1840.83 213 1840.83 213C1840.83 213 1840.83 213 1840.83 213C1840.83 213 1840.82 213 1840.82 213C1840.82 213 1840.82 213 1840.82 213C1840.82 213 1840.82 213 1840.82 213C1840.82 213 1840.82 213 1840.82 213C1840.82 213 1840.82 213 1840.81 213C1840.81 213 1840.81 213 1840.81 213C1840.81 213 1840.81 213 1840.81 213C1840.81 213 1840.81 213 1840.81 213C1840.81 213 1840.81 213 1840.8 213C1840.8 213 1840.8 213 1840.8 213C1840.8 213 1840.8 213 1840.8 213C1840.8 213 1840.8 213 1840.8 213C1840.8 213 1840.8 213 1840.8 213C1840.79 213 1840.79 213 1840.79 213C1840.79 213 1840.79 213 1840.79 213C1840.79 213 1840.79 213 1840.79 213C1840.79 213 1840.79 213 1840.79 213C1840.78 213 1840.78 213 1840.78 213C1840.78 213 1840.78 213 1840.78 213C1840.78 213 1840.78 213 1840.78 213C1840.78 213 1840.78 213 1840.78 213C1840.78 213 1840.77 213 1840.77 213C1840.77 213 1840.77 213 1840.77 213C1840.77 213 1840.77 213 1840.77 213C1840.77 213 1840.77 213 1840.77 213C1840.77 213 1840.76 213 1840.76 213C1840.76 213 1840.76 213 1840.76 213C1840.76 213 1840.76 213 1840.76 213C1840.76 213 1840.76 213 1840.76 213C1840.76 213 1840.75 213 1840.75 213C1840.75 213 1840.75 213 1840.75 213C1840.75 213 1840.75 213 1840.75 213C1840.75 213 1840.75 213 1840.75 213C1840.75 213 1840.75 213 1840.74 213C1840.74 213 1840.74 213 1840.74 213C1840.74 213 1840.74 213 1840.74 213C1840.74 213 1840.74 213 1840.74 213C1840.74 213 1840.74 213 1840.73 213C1840.73 213 1840.73 213 1840.73 213C1840.73 213 1840.73 213 1840.73 213C1840.73 213 1840.73 213 1840.73 213C1840.73 213 1840.73 213 1840.72 213C1840.72 213 1840.72 213 1840.72 213C1840.72 213 1840.72 213 1840.72 213C1840.72 213 1840.72 213 1840.72 213C1840.72 213 1840.72 213 1840.71 213C1840.71 213 1840.71 213 1840.71 213C1840.71 213 1840.71 213 1840.71 213C1840.71 213 1840.71 213 1840.71 213C1840.71 213 1840.71 213 1840.7 213C1840.7 213 1840.7 213 1840.7 213C1840.7 213 1840.7 213 1840.7 213C1840.7 213 1840.7 213 1840.7 213C1840.7 213 1840.69 213 1840.69 213C1840.69 213 1840.69 213 1840.69 213C1840.69 213 1840.69 213 1840.69 213C1840.69 213 1840.69 213 1840.69 213C1840.69 213 1840.68 213 1840.68 213C1840.68 213 1840.68 213 1840.68 213C1840.68 213 1840.68 213 1840.68 213C1840.68 213 1840.68 213 1840.68 213C1840.67 213 1840.67 213 1840.67 213C1840.67 213 1840.67 213 1840.67 213C1840.67 213 1840.67 213 1840.67 213C1840.67 213 1840.67 213 1840.67 213C1840.66 213 1840.66 213 1840.66 213C1840.66 213 1840.66 213 1840.66 213C1840.66 213 1840.66 213 1840.66 213C1840.66 213 1840.66 213 1840.65 213C1840.65 213 1840.65 213 1840.65 213C1840.65 213 1840.65 213 1840.65 213C1840.65 213 1840.65 213 1840.65 213C1840.65 213 1840.64 213 1840.64 213C1840.64 213 1840.64 213 1840.64 213C1840.64 213 1840.64 213 1840.64 213C1840.64 213 1840.64 213 1840.64 213C1840.63 213 1840.63 213 1840.63 213C1840.63 213 1840.63 213 1840.63 213C1840.63 213 1840.63 213 1840.63 213C1840.63 213 1840.63 213 1840.62 213C1840.62 213 1840.62 213 1840.62 213C1840.62 213 1840.62 213 1840.62 213C1840.62 213 1840.62 213 1840.62 213C1840.62 213 1840.61 213 1840.61 213C1840.61 213 1840.61 213 1840.61 213C1840.61 213 1840.61 213 1840.61 213C1840.61 213 1840.61 213 1840.61 213C1840.6 213 1840.6 213 1840.6 213C1840.6 213 1840.6 213 1840.6 213C1840.6 213 1840.6 213 1840.6 213C1840.6 213 1840.6 213 1840.59 213C1840.59 213 1840.59 213 1840.59 213C1840.59 213 1840.59 213 1840.59 213C1840.59 213 1840.59 213 1840.59 213C1840.58 213 1840.58 213 1840.58 213C1840.58 213 1840.58 213 1840.58 213C1840.58 213 1840.58 213 1840.58 213C1840.58 213 1840.58 213 1840.57 213C1840.57 213 1840.57 213 1840.57 213C1840.57 213 1840.57 213 1840.57 213C1840.57 213 1840.57 213 1840.57 213C1840.56 213 1840.56 213 1840.56 213C1840.56 213 1840.56 213 1840.56 213C1840.56 213 1840.56 213 1840.56 213C1840.56 213 1840.55 213 1840.55 213C1840.55 213 1840.55 213 1840.55 213C1840.55 213 1840.55 213 1840.55 213C1840.55 213 1840.55 213 1840.54 213C1840.54 213 1840.54 213 1840.54 213C1840.54 213 1840.54 213 1840.54 213C1840.54 213 1840.54 213 1840.54 213C1840.53 213 1840.53 213 1840.53 213C1840.53 213 1840.53 213 1840.53 213C1840.53 213 1840.53 213 1840.53 213C1840.53 213 1840.52 213 1840.52 213C1840.52 213 1840.52 213 1840.52 213C1840.52 213 1840.52 213 1840.52 213C1840.52 213 1840.52 213 1840.51 213C1840.51 213 1840.51 213 1840.51 213C1840.51 213 1840.51 213 1840.51 213C1840.51 213 1840.51 213 1840.51 213C1840.5 213 1840.5 213 1840.5 213C1840.5 213 1840.5 213 1840.5 213C1840.5 213 1840.5 213 1840.5 213C1840.49 213 1840.49 213 1840.49 213C1840.49 213 1840.49 213 1840.49 213C1840.49 213 1840.49 213 1840.49 213C1840.49 213 1840.48 213 1840.48 213C1840.48 213 1840.48 213 1840.48 213C1840.48 213 1840.48 213 1840.48 213C1840.48 213 1840.47 213 1840.47 213C1840.47 213 1840.47 213 1840.47 213C1840.47 213 1840.47 213 1840.47 213C1840.47 213 1840.46 213 1840.46 213C1840.46 213 1840.46 213 1840.46 213C1840.46 213 1840.46 213 1840.46 213C1840.46 213 1840.45 213 1840.45 213C1840.45 213 1840.45 213 1840.45 213C1840.45 213 1840.45 213 1840.45 213C1840.45 213 1840.45 213 1840.44 213C1840.44 213 1840.44 213 1840.44 213C1840.44 213 1840.44 213 1840.44 213C1840.44 213 1840.43 213 1840.43 213C1840.43 213 1840.43 213 1840.43 213C1840.43 213 1840.43 213 1840.43 213C1840.43 213 1840.42 213 1840.42 213C1840.42 213 1840.42 213 1840.42 213C1840.42 213 1840.42 213 1840.42 213C1840.42 213 1840.41 213 1840.41 213C1840.41 213 1840.41 213 1840.41 213C1840.41 213 1840.41 213 1840.41 213C1840.41 213 1840.4 213 1840.4 213C1840.4 213 1840.4 213 1840.4 213C1840.4 213 1840.4 213 1840.4 213C1840.39 213 1840.39 213 1840.39 213C1840.39 213 1840.39 213 1840.39 213C1840.39 213 1840.39 213 1840.39 213C1840.38 213 1840.38 213 1840.38 213C1840.38 213 1840.38 213 1840.38 213C1840.38 213 1840.38 213 1840.37 213C1840.37 213 1840.37 213 1840.37 213C1840.37 213 1840.37 213 1840.37 213C1840.37 213 1840.37 213 1840.36 213C1840.36 213 1840.36 213 1840.36 213C1840.36 213 1840.36 213 1840.36 213C1840.36 213 1840.35 213 1840.35 213C1840.35 213 1840.35 213 1840.35 213C1840.35 213 1840.35 213 1840.35 213C1840.34 213 1840.34 213 1840.34 213C1840.34 213 1840.34 213 1840.34 213C1840.34 213 1840.34 213 1840.33 213C1840.33 213 1840.33 213 1840.33 213C1840.33 213 1840.33 213 1840.33 213C1840.33 213 1840.32 213 1840.32 213C1840.32 213 1840.32 213 1840.32 213C1840.32 213 1840.32 213 1840.32 213C1840.31 213 1840.31 213 1840.31 213C1840.31 213 1840.31 213 1840.31 213C1840.31 213 1840.31 213 1840.3 213C1840.3 213 1840.3 213 1840.3 213C1840.3 213 1840.3 213 1840.3 213C1840.3 213 1840.29 213 1840.29 213C1840.29 213 1840.29 213 1840.29 213C1840.29 213 1840.29 213 1840.28 213C1840.28 213 1840.28 213 1840.28 213C1840.28 213 1840.28 213 1840.28 213C1840.28 213 1840.27 213 1840.27 213C1840.27 213 1840.27 213 1840.27 213C1840.27 213 1840.27 213 1840.27 213C1840.26 213 1840.26 213 1840.26 213C1840.26 213 1840.26 213 1840.26 213C1840.26 213 1840.25 213 1840.25 213C1840.25 213 1840.25 213 1840.25 213C1840.25 213 1840.25 213 1840.24 213C1840.24 213 1840.24 213 1840.24 213C1840.24 213 1840.24 213 1840.24 213C1840.24 213 1840.23 213 1840.23 213C1840.23 213 1840.23 213 1840.23 213C1840.23 213 1840.23 213 1840.22 213C1840.22 213 1840.22 213 1840.22 213C1840.22 213 1840.22 213 1840.22 213C1840.21 213 1840.21 213 1840.21 213C1840.21 213 1840.21 213 1840.21 213C1840.21 213 1840.2 213 1840.2 213C1840.2 213 1840.2 213 1840.2 213C1840.2 213 1840.2 213 1840.19 213C1840.19 213 1840.19 213 1840.19 213C1840.19 213 1840.19 213 1840.19 213C1840.18 213 1840.18 213 1840.18 213C1840.18 213 1840.18 213 1840.18 213C1840.18 213 1840.17 213 1840.17 213C1840.17 213 1840.17 213 1840.17 213C1840.17 213 1840.17 213 1840.16 213C1840.16 213 1840.16 213 1840.16 213C1840.16 213 1840.16 213 1840.16 213C1840.15 213 1840.15 213 1840.15 213C1840.15 213 1840.15 213 1840.15 213C1840.15 213 1840.14 213 1840.14 213C1840.14 213 1840.14 213 1840.14 213C1840.14 213 1840.13 213 1840.13 213C1840.13 213 1840.13 213 1840.13 213C1840.13 213 1840.13 213 1840.12 213C1840.12 213 1840.12 213 1840.12 213C1840.12 213 1840.12 213 1840.12 213C1840.11 213 1840.11 213 1840.11 213C1840.11 213 1840.11 213 1840.11 213C1840.1 213 1840.1 213 1840.1 213C1840.1 213 1840.1 213 1840.1 213C1840.1 213 1840.09 213 1840.09 213C1840.09 213 1840.09 213 1840.09 213V215ZM2305.38 213.2H2306.38V212.2H2305.38V213.2ZM2305.38 305.2V306.2H2306.38V305.2H2305.38ZM2177.38 621.2V622.2H2178.38V621.2H2177.38ZM2097.38 621.2H2096.38V622.2H2097.38V621.2ZM2304.38 213.2V305.2H2306.38V213.2H2304.38ZM2305.38 304.2C2267.57 304.2 2235.32 315.865 2212.51 336.356C2189.68 356.856 2176.38 386.132 2176.38 421.2H2178.38C2178.38 386.668 2191.47 357.944 2213.84 337.844C2236.23 317.735 2267.98 306.2 2305.38 306.2V304.2ZM2176.38 421.2V621.2H2178.38V421.2H2176.38ZM2177.38 620.2H2097.38V622.2H2177.38V620.2ZM2098.38 621.2V421.2H2096.38V621.2H2098.38ZM2098.38 421.2C2098.38 356.226 2119.7 304.5 2156.17 269.017C2192.65 233.529 2244.39 214.2 2305.38 214.2V212.2C2243.96 212.2 2191.7 231.67 2154.78 267.583C2117.85 303.5 2096.38 355.774 2096.38 421.2H2098.38Z" fill="white" mask="url(#path-1-outside-1_19_79)"/>
</g>
<defs>
<clipPath id="clip0_19_79">
<rect width="2346" height="641" fill="white"/>
</clipPath>
</defs>
</svg>
